<svg id="Layer_1" data-name="Layer 1" xmlns="http://www.w3.org/2000/svg" viewBox="0 0 1080 1080"><defs><style>.cls-1{fill:#4582a9;}</style></defs><path class="cls-1" d="M573.86,469.56c10.93-100.39,56.54-210.13,156-252.11,41.61-17.57,86.43-21.06,130.86-25.55,39.35-4,84.19-7.6,116.93-31.94,2.08-1.55.8-5.33-2-4.38-48.17,16.31-94.5,23.87-144.93,29.49-45.41,5.06-87.79,14.44-127.21,38.5C618.67,275.34,576.71,373.1,569.07,469.08c-.21,2.7,4.49,3.2,4.79.48Z"/><path class="cls-1" d="M969,164.86c14.3-7.74,28.6-16.2,43.69-22.33,7-2.82,14.35-5.73,21.95-6,16-.63,27.85,13.35,18,27.91-1,1.4.93,2.61,2.14,2,16.9-8,3.88-30.7-9.76-34.43-25.3-6.93-59.46,16.22-76.6,32.17-.37.35.12.89.54.67Z"/><path class="cls-1" d="M1051.35,161.33c-71.33,145-141.42,331-317.07,373.29-6.13,1.47-3.26,10.75,2.84,9.35,179.82-41.33,253.12-229.41,316.09-381.62.52-1.24-1.24-2.27-1.86-1Z"/><path class="cls-1" d="M1057.1,155.3c-9.86,12.32-21.11,26.55-26.69,41.38-.41,1.09,1.11,1.6,1.81,1,11.56-10.33,21-26.29,28.65-39.59,1.31-2.26-2.07-4.89-3.77-2.77Z"/><path class="cls-1" d="M1060,156.29c-14.38,13.54-26.08,32.54-33,50.9-.39,1,1.19,1.49,1.72.66,10.85-16.8,22.27-33.43,32.9-50.35.65-1-.83-2-1.65-1.21Z"/><path class="cls-1" d="M568.76,550.45c12.17-18.41,22.93-37.4,36.42-55,10.62-13.83,23.7-26,33.3-40.45,1-1.48-1.09-3.41-2.52-2.39-29.35,21.14-56.29,63.21-70.7,95.89a2,2,0,0,0,3.5,1.92Z"/><path class="cls-1" d="M635.92,450.52c14.22-3,12-21.15,4.27-29.83-1.22-1.37-3.19-.63-4.06.63C610.84,457.59,539,474.39,540.81,527c.1,2.91,4.46,3.39,5.11.51,7.64-33.42,31.16-50.74,58-69.22,8.33-5.74,16.66-11.71,23.93-18.8,1.86-1.81,7.7-9.95,9.11-10.25,8.17-1.74-.35,18.11-1.61,20.54a.54.54,0,0,0,.62.77Z"/><path class="cls-1" d="M566.46,554.43c-.76-13.19-10-23-21.22-29-23.74-12.63-48.15-20.37-45-53,.1-1.13-1.51-1.27-2-.47-7.85,12.58-1.79,27.65,7.93,37.6,6.61,6.77,15.26,11.14,23.79,15,16.33,7.34,25.77,12.94,33.43,30.42.66,1.5,3.16,1.4,3.05-.51Z"/><path class="cls-1" d="M499.25,476l.64-1.32a1.62,1.62,0,0,0-.29-1.89c-3.22-3.07-7.21-2.24-10.2.8-6.16,6.26-3.89,18.48-.92,25.47,3.93,9.25,11.3,16.65,19.26,22.52,13.1,9.67,25.29,17.67,36.68,29.42,1.54,1.59,4.65-.17,3.78-2.32-4.53-11.18-15.47-17.71-25.32-23.89-7-4.37-14.47-8.32-20.32-14.2-4.48-4.5-8.85-10.7-10.68-16.88-.4-2.39-.79-4.78-1.19-7.18q-.69-13,6.5-11c.16,1,1.54,1.57,2.06.48Z"/><path class="cls-1" d="M522.24,564.66c48.38-14.29,89.53-54.83,141.68-55.87,29.36-.59,57,12.35,71,39,9.89,18.72,5.81,40.62,17.09,58.32a1.53,1.53,0,0,0,2.76-1.24c-6.07-24.43-2.92-46.93-18.74-68.36a81.55,81.55,0,0,0-54-32.48c-58.45-8.28-109.67,37.54-160.75,57.5-1.93.75-1.1,3.72.94,3.12Z"/><path class="cls-1" d="M755.9,610.12c-22.84,4.71-42.43-7.45-64.27-11.43-18.82-3.44-38.26-1.34-57,1.9-22.23,3.86-44,10.34-66.41,13.16-25.51,3.22-47.54-2.88-72.36-6.25-1.6-.22-3,1.72-1.62,3,32,28.4,90.79,8.13,127.18.17,28.56-6.24,57.16-10.25,85.8-2.22,17.07,4.79,32.52,11.59,49.37,3.31,1-.47.19-1.81-.73-1.62Z"/><path class="cls-1" d="M498.5,612.46c4.82-9.28,7.41-19,13.57-27.68s14.69-14.15,22-21.66a1.48,1.48,0,0,0-1.49-2.41c-18.29,5.58-37,32.18-35.79,51.34a.91.91,0,0,0,1.68.41Z"/><path class="cls-1" d="M521.31,574.08a270.4,270.4,0,0,0,34.56-17c10.93-6.19,23.64-11.74,32.51-20.77a2,2,0,0,0-2-3.29c-11.65,3-22.17,10.78-32.45,16.84-11.57,6.82-22.93,14-33.42,22.38-.79.64-.34,2.25.82,1.8Z"/><path class="cls-1" d="M555.15,552.08c-6.69,3.29-13.84,5.73-20.54,9.16-5.84,3-12.66,5.76-17.13,10.67a1.44,1.44,0,0,0,1.45,2.35c6.53-1.14,12.62-5.49,18.28-8.8,6.44-3.77,12.29-8.46,18.6-12.3.7-.44.05-1.43-.66-1.08Z"/><path class="cls-1" d="M606.58,522c35.73-16.13,61.72-47.17,88.85-74.32,31-31,60.86-60.83,94.71-88.71.84-.69-.28-1.94-1.16-1.44-33.6,19.37-59.89,51.27-85.6,79.68-29.56,32.66-60.71,59.3-97.08,84.19-.29.2-.08.77.28.6Z"/><path class="cls-1" d="M797.29,348.43c37.45-19.9,74.41-43.89,109.35-67.93,29.44-20.25,62.48-42.7,81.58-73.66.61-1-.81-1.94-1.6-1.17-29,28.48-56.26,55.54-90.58,78-32.87,21.5-68,39.92-100.14,62.49a1.33,1.33,0,0,0,1.39,2.27Z"/><path class="cls-1" d="M1012.12,177.41c-9.73,10.28-17.47,22.4-23.63,35.1-.33.68.57,1.43,1.12.82C999,202.76,1007.2,191,1013,178c.24-.53-.41-1.09-.85-.63Z"/><path class="cls-1" d="M978.36,232.85c-32.14,29.27-66,53.53-103.59,75.35-32.42,18.83-71.58,36-98.2,62.83-.92.93.31,2.24,1.37,1.69,37-18.93,72.65-43.92,108.25-65.54,33.5-20.35,68.44-42.38,93.71-72.86a1.07,1.07,0,0,0-1.54-1.47Z"/><path class="cls-1" d="M781.3,352.45c-33.94,17.74-61.48,48-86.79,76.06-13.43,14.89-26.48,30.17-40.32,44.68-14.53,15.23-32.78,26.9-46.65,42.4a1.34,1.34,0,0,0,1.66,2c15.38-7.72,28.11-23.16,39.93-35.45,13.91-14.47,27.2-29.46,40.48-44.5,28.3-32.05,57-59.86,92.77-83.49a1,1,0,0,0-1.08-1.75Z"/><path class="cls-1" d="M670.78,452.69c13-15.31,16.4-36.59,20.29-55.72,5.32-26.16,11.4-49.29,26.9-71.47.68-1-.81-1.9-1.59-1.17-15.6,14.5-21.32,35.16-25.69,55.4-5.45,25.2-11.43,48.5-20.24,72.78-.07.19.21.33.33.18Z"/><path class="cls-1" d="M723.17,316.1c15.13-16,26.85-34.86,41.23-51.51.22-.26-.15-.62-.39-.37-15.27,15.87-31.42,31.51-41.74,51.22a.57.57,0,0,0,.9.66Z"/><path class="cls-1" d="M666.65,475.46c48.79-.48,104.27-15.85,147.64-37.65.61-.31.15-1.3-.48-1.08-24.13,8.22-47.72,17.28-72.5,23.48s-50,8.8-74.95,13.5c-1,.19-.69,1.76.29,1.75Z"/><path class="cls-1" d="M859.24,411.05c-11.26,6-23,11.11-33.19,18.82-.88.66-.33,2.42.87,1.92,11.86-5,22.28-12.55,33.19-19.32a.83.83,0,0,0-.87-1.42Z"/><path class="cls-1" d="M813.1,340.12c10.25-15.75,18-33.07,28.16-48.94,11.51-17.94,24.67-34.56,37.73-51.37.46-.59-.33-1.4-.86-.82-26,28-53.41,64.44-66.38,100.61-.29.82.93,1.17,1.35.52Z"/><path class="cls-1" d="M893.45,222.05c-3.89,3.91-7.77,7.82-11.56,11.83a.27.27,0,0,0,.39.37c3.92-3.88,7.74-7.85,11.55-11.83a.27.27,0,0,0-.38-.37Z"/><path class="cls-1" d="M844.08,291.46c-11,10.15-18.65,24.4-24,38.17-.87,2.23,2.39,4.09,3.32,1.82,5.86-14.28,14.07-25.87,22.79-38.47.88-1.27-1-2.46-2.07-1.52Z"/><path class="cls-1" d="M863.17,325.65c28.63-1.46,62.06-8,86.4-23.82,1.17-.77.36-2.77-1-2.29-13.31,4.57-25.77,11-39.3,15.15a319.68,319.68,0,0,1-46.11,9.9c-.66.1-.66,1.1,0,1.06Z"/><path class="cls-1" d="M926.16,305.47c-20.38,5.89-40.61,10.67-61.69,13.24-2.12.26-2,3.63.12,3.32,21.08-3.08,42-8,61.79-15.86a.37.37,0,0,0-.22-.7Z"/><path class="cls-1" d="M727.11,456.88a.21.21,0,0,0,.1-.41.21.21,0,0,0-.1.41Z"/><path class="cls-1" d="M681.87,465.38c30,1.19,64.68-3.88,91.42-18.11.75-.4.19-1.55-.59-1.32-30.81,8.93-58.53,16.12-90.91,17.11a1.16,1.16,0,0,0,.08,2.32Z"/><path class="cls-1" d="M531.5,566.07c-39.32-35.05-85.92-71.63-138.89-81.83-43.7-8.42-86.62,4.79-123.34,28.49C228.53,539,196.87,575.88,166,612.68c-16.34,19.49-32.64,39.07-50.51,57.2C94.66,691,71,707.52,47.55,725.42c-1.47,1.13-.59,3.92,1.44,3.19,40.81-14.84,72.69-52,100.11-84,29.64-34.69,57-71.48,91.5-101.69,35.74-31.33,79.93-56.63,128.83-55.55,63.48,1.4,112.37,44.24,159.55,81.39,1.81,1.43,4.31-1.06,2.52-2.65Z"/><path class="cls-1" d="M48.05,726.7c-19.94,30.88,44.77,56,64.91,62.51,48.88,15.84,104.56,18.12,155.57,18.48,51.6.37,105.78-3,154.63-20.92,39-14.29,82.25-41,98.78-81,1.06-2.57-2.23-5.73-4.31-3.15-25.46,31.52-51.88,57.09-90.18,72.54-40.54,16.36-84.58,21.32-127.94,23.18-43.88,1.87-87.86.57-131.46-5C148.83,791,129.51,787.75,111,782c-17.21-5.34-76.56-27.62-62.17-54.9.27-.49-.45-.87-.75-.41Z"/><path class="cls-1" d="M518.91,707.58C529.18,694.3,536.3,679.65,543,664.3c5.71-13,12.86-27.25,13.85-41.56.1-1.37-1.75-1.49-2.37-.57-9,13.5-13,30.34-19.52,45.21-5.83,13.26-12.21,26-17.09,39.65a.6.6,0,0,0,1,.55Z"/><path class="cls-1" d="M491.24,605.2c-31,4.08-62.19,15-92.11,23.8-32.56,9.57-64.82,20.23-96.23,33.12-29.18,12-57.68,25.72-84.6,42.22-30.65,18.78-57,37.85-93.84,41.49-1.73.17-2.3,3.06-.33,3.28,27.12,2.89,51.86-12,73.86-26,30-19.18,60.15-36.9,92.84-51.19,31.06-13.57,63.2-24.61,95.62-34.46C421,627,458.16,620.78,491.64,607.61c1.2-.48,1.08-2.6-.4-2.41Z"/><path class="cls-1" d="M397.6,646.66c-42.12,6.6-81.44,25.73-120.23,42.55-41.52,18-82.11,31.51-126.57,39.91-1.17.22-.8,2,.33,2,42.09-1.08,83.17-18.95,121.27-35.29,41.4-17.76,82.13-34.57,125.65-46.52,1.45-.4,1.1-2.91-.45-2.67Z"/><path class="cls-1" d="M428.49,629.44c-19.88,9.52-39.65,16.62-60.43,23.74-1,.34-.82,2,.31,1.88,21.38-2,43.94-11.15,61.55-23.3a1.36,1.36,0,0,0-1.43-2.32Z"/><path class="cls-1" d="M466.55,618c-9.19,2.28-18.15,5.27-27.1,8.35-8,2.76-16.52,5-24,9.1-2.48,1.36-.56,4.82,1.92,4.27,9.14-2,17.95-6.48,26.6-10,7.85-3.19,15.63-6.54,23.18-10.4.77-.4.17-1.52-.6-1.32Z"/><path class="cls-1" d="M482.92,614.83c-22.45,4.95-47.08,9.11-67.53,20a1.64,1.64,0,0,0,.91,3c23.05-2.52,45.74-13,67.08-21.51a.79.79,0,0,0-.46-1.52Z"/><path class="cls-1" d="M480.28,610c-12.82-9.34-27.29-16.13-40.49-25S414.27,566.3,401,557.62c-.48-.31-1,.43-.58.8,22.11,20.09,51.88,41.06,79.54,52.2a.36.36,0,0,0,.35-.64Z"/><path class="cls-1" d="M386.64,552.63c-2.95-.87-5.37-1.87-8.51-1.82a.74.74,0,0,0-.33,1.37c2.78,1.45,5.41,1.66,8.42,2.2a.9.9,0,0,0,.42-1.75Z"/><path class="cls-1" d="M352.67,548a83.1,83.1,0,0,0-18,1.69c-.66.15-.42,1.08.18,1.11a83.92,83.92,0,0,0,18-1.5c.77-.14.51-1.3-.21-1.3Z"/><path class="cls-1" d="M451.14,632.54c-23,30.2-49.61,56.34-74.65,84.66-.33.38.14,1,.58.72,29.76-22.57,54-54.13,74.6-85,.21-.31-.3-.69-.53-.39Z"/><path class="cls-1" d="M344.58,741.74c-14.13,7.94-28.12,15.26-41,25.23a.67.67,0,0,0,.7,1.13c14.63-7.12,27.39-16.41,40.77-25.57a.46.46,0,0,0-.49-.79Z"/><path class="cls-1" d="M366.63,637.26c-29.64-11.19-68.36-7.73-98.91-2.3-33,5.88-64.18,16.54-92.87,33.85-.53.31,0,1,.49.79,31.84-14.69,65-26.15,99.86-30.66,31-4,60.52.95,91.27-.1a.81.81,0,0,0,.16-1.58Z"/><path class="cls-1" d="M167.82,676.43a239.31,239.31,0,0,0-34.26,17c-.47.29-.13,1.11.41.9a238.38,238.38,0,0,0,34.15-17.21c.35-.2.09-.82-.3-.66Z"/><path class="cls-1" d="M551.49,627.21c38,44.51-3.16,99.71-1.71,150.11,1.19,41.36,19.84,79.55,49.66,107.8,15.85,15,34.08,27.37,52.8,38.52,17.1,10.18,35.92,22.42,56.38,23.89,34.65,2.5,45.17-29.62,47.17-58.44.09-1.21-1.85-1.36-2.1-.21-5.34,24.66-12.75,52.74-44,51.62-19.16-.68-37.93-13.85-53.82-23.51-39.37-23.93-76-53-91.49-98.13a148.24,148.24,0,0,1-7.47-61.41C559,734.83,568,713.9,572.07,691.68c4.24-23.27,1.91-51.69-19.88-65.43-.61-.38-1.11.48-.7,1Z"/><path class="cls-1" d="M574.53,620.81c1,22.78,27.29,39.45,44.81,50,30.34,18.27,60.85,34,86.83,58.79,26.81,25.57,48.72,58.06,56.65,94.7,4.61,21.31,4.53,44-1.46,65-5.69,20-17.43,33.86-28.61,50.69-.72,1.08.78,2.44,1.82,1.73,24.75-17,34.87-53.24,36.61-81.63,2.17-35.45-10-69.66-30.09-98.52C721.15,733,694.39,709.51,665,691c-15.68-9.91-32.61-17.67-48.28-27.59-18.88-11.94-27.85-25.94-41.41-42.8a.44.44,0,0,0-.8.24Z"/><path class="cls-1" d="M756.26,860c.53,9.69,1.35,19.4.82,29.1s-3.18,19.13-3.5,28.77a.9.9,0,0,0,1.68.4c7.9-16.74,7-40.94,2.76-58.56a.9.9,0,0,0-1.76.29Z"/><path class="cls-1" d="M588.52,676.51c22.51,32.64,47,63.82,69.68,96.35,10.41,15,20.41,30.35,28.38,46.79,10.28,21.21,15.5,43.75,23.91,65.59a.7.7,0,0,0,1.34-.41C697.55,803.6,639.66,738.2,589.48,675.92c-.44-.55-1.38,0-1,.59Z"/><path class="cls-1" d="M614.35,724a851.36,851.36,0,0,0,78,128.63.37.37,0,0,0,.63-.39A850.51,850.51,0,0,0,615.2,723.48a.5.5,0,0,0-.85.52Z"/><path class="cls-1" d="M617.51,742.68c-15.11,37.44-14.75,79.5,3.12,116,.25.51,1.08.12.9-.41-13.2-38.53-14.82-76-2.73-115.13.23-.74-1-1.24-1.29-.5Z"/><path class="cls-1" d="M657.2,759.42c18.14,18,36.18,35.65,56.44,51.33a.53.53,0,0,0,.74-.77C696.84,791.3,677.53,775,657.89,758.7c-.49-.41-1.15.27-.69.72Z"/><path class="cls-1" d="M455,509.4c-22.38-52.13-59.09-96-76.8-150.81-18.45-57-14.4-111.47-4.85-169.49a1.06,1.06,0,0,0-2.07-.49c-18.29,50.12-14.87,110.3-.61,161,7.48,26.58,18.93,51.75,32.06,76,15.39,28.37,31.42,58.91,51.55,84.16.25.32.91.13.72-.33Z"/><path class="cls-1" d="M376.75,186.41c22.44,2.17,32.08,21.9,43,38.17,7.58,11.25,15.75,22.08,24.19,32.7,17.67,22.23,36.57,43.48,53.86,66,35.48,46.24,64,101.6,53.37,161.46-.65,3.64,4.93,5,5.62,1.34,12-63.95-20.62-122.84-59.07-171.39-23-29.06-48.6-56.05-70.18-86.24-12.93-18.11-25.17-45.09-50.91-44.31-1.5,0-1.32,2.13.08,2.26Z"/><path class="cls-1" d="M397.26,232.92c5.94,36.41,18.1,71.19,34.58,104.17,18.94,37.88,45.84,69.4,58.54,110.26a1.37,1.37,0,0,0,2.67-.44c.29-35-30.41-65.17-46.89-93.84C424.44,315.3,410.11,274.61,399,232.63c-.25-1-1.92-.73-1.76.29Z"/><path class="cls-1" d="M449.09,350.17a214.1,214.1,0,0,1,23.53,33.56c6.11,11,9.9,22.92,15.11,34.34.53,1.16,2,.19,1.86-.84-4.3-25.29-21.82-50.2-40.13-67.44-.26-.24-.59.13-.37.38Z"/><path class="cls-1" d="M431.29,316.05c7.21,9.3,14.54,18.46,20.78,28.46s11,20.75,16.76,31a.73.73,0,0,0,1.32-.59c-6.36-22-21.46-43.94-37.89-59.67-.5-.48-1.42.2-1,.78Z"/><path class="cls-1" d="M370.4,313.63c.93,13.88,5.3,27.6,14,38.61.2.25.6,0,.43-.26-7.31-12-12.38-24.33-13.85-38.37,0-.35-.59-.34-.56,0Z"/><path class="cls-1" d="M371.39,287.56c-2.22,24.49.8,52.2,12.87,74,.37.68,1.4.17,1.2-.54-6.95-24.79-12.9-47.48-13.14-73.52,0-.61-.88-.54-.93,0Z"/><path class="cls-1" d="M378.9,301.14c2.07,18.65,3.11,40.1,9.48,57.87a.7.7,0,0,0,1.37-.23c.32-18.84-5.6-39.56-9.62-57.84a.63.63,0,0,0-1.23.2Z"/><path class="cls-1" d="M387.17,315c3.88,12,4.93,23.83,6.59,36.23.08.64,1.15.89,1.24.12,1.48-12.3-1.89-25.44-6.49-36.76-.34-.82-1.62-.46-1.34.41Z"/><path class="cls-1" d="M374.62,206.7c-14.39,40.94-16.17,88.74,1.75,129.06a.76.76,0,0,0,1.46-.45C367,291.53,363.74,251,375.27,206.85c.11-.42-.51-.55-.65-.15Z"/><path class="cls-1" d="M383.36,350.8c19.72,58,45.93,118.29,79.73,169.58a.63.63,0,0,0,1.08-.66c-27.36-56.33-55.69-111.37-80.37-169-.11-.27-.54-.16-.44.13Z"/><path class="cls-1" d="M438.83,464.69c4.47,9.24,9.46,18.17,14.48,27.13,4.39,7.81,8.33,17,14.4,23.61.51.56,1.44-.07,1.23-.76-2.67-8.61-8.61-16.63-13.15-24.38-5.18-8.84-10.36-17.64-16.08-26.14a.52.52,0,0,0-.88.54Z"/><path class="cls-1" d="M453.58,479.22c6.5,13.54,13,28.5,22.29,40.41.4.51,1.36.21,1.11-.5-5-14.29-14-28-21.9-40.83-.61-1-2-.08-1.5.92Z"/><path class="cls-1" d="M468.16,491.41c2.37,4.78,4.63,9.62,7,14.39,2.09,4.17,3.92,9.06,7.18,12.44.58.6,1.45-.08,1.29-.79-1-4.56-4.18-8.83-6.52-12.85-2.67-4.59-5.47-9.11-8.15-13.69-.32-.54-1.1,0-.82.5Z"/><path class="cls-1" d="M487.58,519.38l3.63,9.57c.08.22.43.11.35-.11l-3.47-9.61c-.12-.32-.63-.17-.51.15Z"/><path class="cls-1" d="M602.14,536.67c-20.63,11.79-42.11,24.57-60.43,39.77-.61.51.21,1.34.83,1C563.73,566.81,584,552.23,603,538.09a.83.83,0,0,0-.87-1.42Z"/><path class="cls-1" d="M598.33,530.46c-17.61,11.71-37.34,22.42-53,36.67-.66.6.22,1.52.94,1.15,18.81-9.65,35.7-24.3,52.83-36.63.72-.52,0-1.69-.73-1.19Z"/><path class="cls-1" d="M604.75,540.87c-12.56,9.51-27.3,18.38-38.22,29.74a.64.64,0,0,0,.79,1c13.64-7.82,25.76-19.92,38-29.78.54-.44,0-1.37-.57-.94Z"/><path class="cls-1" d="M732.41,556.15c-17.67-44.55-76.74-42.09-115-32.93-.52.12-.39,1,.16.94,44-6.26,85.76-8,114.3,32.22.17.25.63.09.51-.23Z"/><path class="cls-1" d="M547.86,570.84c-11.68,6.25-24.72,15.65-29.79,28.45-.4,1,.86,2.27,1.7,1.25,9-11,16-21.48,28.57-28.93.5-.3,0-1-.48-.77Z"/><path class="cls-1" d="M541.68,572.32c-12.41,7-25.37,17.36-31,30.88-.33.8.66,1.73,1.33,1,9.81-11,18.06-22.11,30.26-30.83a.6.6,0,0,0-.63-1Z"/><path class="cls-1" d="M548.69,579.86a77.47,77.47,0,0,0-15.49,10.37c-4,3.41-9.41,7.79-10.94,13a.81.81,0,0,0,1.2.87c4.24-2.76,7.24-7.9,10.88-11.47a92.58,92.58,0,0,1,15-11.66.63.63,0,0,0-.66-1.07Z"/><path class="cls-1" d="M554.63,581.69c-5.29,3.71-10.42,7.66-15.48,11.68s-10.53,7.87-14.56,12.83a.89.89,0,0,0,1.1,1.36c5.35-2.83,10-7.26,14.63-11.16,5.18-4.38,10.33-8.87,15.22-13.58.59-.57-.22-1.61-.91-1.13Z"/><path class="cls-1" d="M558.71,588.33c-4.24,3.13-8.49,6.25-12.71,9.4-3.32,2.48-7.79,4.81-9.93,8.41a.89.89,0,0,0,1,1.27c4.07-1.18,7.73-5.19,11-7.82q5.86-4.71,11.7-9.45c1-.84,0-2.64-1.11-1.81Z"/><path class="cls-1" d="M546.52,603.29c26.43-3.74,54.28-7.58,80.1-14.45,1-.28.8-2-.32-1.92-26.61,2.85-53.91,9.22-80,15.23-.64.14-.47,1.23.19,1.14Z"/><path class="cls-1" d="M723.58,596c-28.07-11.2-62.11-12.45-90.93-3.37-.74.24-.59,1.5.23,1.4a273.48,273.48,0,0,1,90,3.82c1,.21,1.8-1.41.71-1.85Z"/><path class="cls-1" d="M715.88,602.66c-19.14-10-51-8.88-70.8-1.42a1,1,0,0,0,.32,1.92c11.8-.55,23.4-2.57,35.26-2.44s23.36,3,35.07,2.59a.35.35,0,0,0,.15-.65Z"/><path class="cls-1" d="M563.7,729.64c-5.62,27.85-6.32,59.34,3.82,86.28.22.58,1.22.5,1.14-.19-3.39-29.39-6.82-56.31-4-86,.05-.55-.85-.62-.95-.1Z"/><path class="cls-1" d="M571.59,752c-3.93,15.38-4.83,36,1.48,50.86a.87.87,0,0,0,1.69-.28c-.12-8.4-2.16-16.75-2.52-25.19s.14-16.85.34-25.29c0-.57-.85-.63-1-.1Z"/><path class="cls-1" d="M576.05,759c1,14.69.79,30.41,3.93,44.83.17.75,1.24.48,1.27-.21.56-14.69-2.39-30.08-4-44.67-.08-.75-1.24-.73-1.19,0Z"/><path class="cls-1" d="M585,770c.6,9.75.34,20,2.13,29.67.13.66,1.09.41,1.11-.19.36-9.72-1.43-19.83-2.28-29.52,0-.61-1-.59-1,0Z"/><path class="cls-1" d="M589.14,776.77c.75,5.08,1.37,10.22,2.56,15.21a.45.45,0,0,0,.87-.14c-.31-5.07-1.19-10.1-1.94-15.12-.13-.94-1.63-.9-1.49,0Z"/><path class="cls-1" d="M577.16,691.84A149.76,149.76,0,0,0,567,757.06c0,.75,1.28,1,1.38.14,2.78-21.8,6.53-43.07,10.62-64.65.2-1-1.4-1.8-1.84-.71Z"/><path class="cls-1" d="M569.07,643.54c5.82,27.45,5.6,51.31.73,78.88a.85.85,0,0,0,1.65.39c9.5-24.84,8.5-55-1.62-79.5a.4.4,0,0,0-.76.23Z"/><path class="cls-1" d="M603.25,865.51c28.29,23.1,58,45.22,90.67,61.73a.48.48,0,0,0,.46-.85c-31-19.6-62-38.47-90.94-61.07-.14-.1-.32.08-.19.19Z"/><path class="cls-1" d="M632.43,875.9c15,15.92,32.51,32.64,51.83,43.16a.71.71,0,0,0,.83-1.14c-16.41-15-35.06-28.19-52-42.67a.45.45,0,0,0-.62.65Z"/><path class="cls-1" d="M649.14,881.68c12.68,10.43,25.55,21.51,39.59,30.07.55.34,1.11-.46.66-.9-11.79-11.46-25.75-21.16-39-30.85-1-.69-2.14.93-1.23,1.68Z"/><path class="cls-1" d="M671.05,887.15c7.46,8.5,15.2,17.75,23.78,25.13.47.4,1.32-.17.9-.73-6.89-9.09-15.63-17.37-23.72-25.41-.65-.64-1.54.35-1,1Z"/><path class="cls-1" d="M689.13,897c3.76,4.76,7.43,9.62,11.31,14.29.14.17.44-.07.31-.25-3.59-4.87-7.4-9.58-11.11-14.35-.24-.31-.75,0-.51.31Z"/><path class="cls-1" d="M601.12,385.93C594.63,406,589.56,426.09,588,447.16c0,.41.65.47.72.07,3.6-20.55,7.19-41.09,13-61.15.11-.39-.5-.53-.62-.15Z"/><path class="cls-1" d="M612.09,342c-12.64,24.75-22.53,50.48-28.5,77.66a.43.43,0,0,0,.84.2c8.2-26.34,17.17-52.25,28.19-77.57.15-.35-.35-.63-.53-.29Z"/><path class="cls-1" d="M618.7,337.6c-12,23.56-20.94,49.56-24.92,75.72a.61.61,0,0,0,1.19.28c8-25.33,16-50.47,25-75.49.28-.76-1-1.22-1.32-.51Z"/><path class="cls-1" d="M626.63,333.3c-12.32,24.74-23.11,51-29.21,78-.18.81,1,1,1.23.29,9.68-25.93,18.54-52,29.2-77.59.34-.81-.81-1.49-1.22-.67Z"/><path class="cls-1" d="M628.2,342.64c-8.2,18-16.8,36.95-22.45,55.95a.55.55,0,0,0,1,.39c8.93-17.68,15.67-37.35,22.09-56.09.13-.37-.48-.6-.65-.25Z"/><path class="cls-1" d="M629.71,351.76c-6,13.69-12.65,28.53-16.09,43.07a.88.88,0,0,0,1.63.62c7-13.24,11.73-28.77,16.15-43,.3-1-1.28-1.6-1.69-.66Z"/><path class="cls-1" d="M764.48,210.64C701.57,226.5,641.16,278.89,620,340.84c-.24.69.87,1.11,1.19.46C652.87,278,697.49,235.39,764.74,211.5a.45.45,0,0,0-.26-.86Z"/><path class="cls-1" d="M776.39,211.3c33.83-5.42,67.45-12.73,100.91-20.08.24-.05.12-.39-.1-.35-33.74,5.83-67.62,11.73-101,19.49-.52.12-.39,1,.16.94Z"/><path class="cls-1" d="M923.63,183.06c-27.53,9.92-55.56,13.65-84.13,19-.83.16-.54,1.39.23,1.4,28.85.39,57.71-8.85,84.2-19.42.61-.25.33-1.22-.3-1Z"/><path class="cls-1" d="M937.07,185.41c-8.68,2.74-17.45,5.32-26.26,7.61-8.65,2.25-18.28,3.16-26.5,6.59a.9.9,0,0,0,.3,1.75c17.27.75,37.26-8,52.8-14.84.66-.29.4-1.34-.34-1.11Z"/><path class="cls-1" d="M945.44,187.77A200.74,200.74,0,0,1,924,199.17c-7.13,3.4-15.57,5.31-22.21,9.51a1.19,1.19,0,0,0,.67,2.18c7.23-.41,14.64-4.42,21.08-7.59,8.17-4,15.22-9.15,22.39-14.71.46-.36,0-1.12-.49-.79Z"/><path class="cls-1" d="M948.58,196.75c-10.31,7-21.11,10.87-32.63,15.36-.91.36-.81,1.94.31,1.82,12.1-1.34,24.11-8.28,33.36-15.9.73-.6-.27-1.81-1-1.28Z"/><path class="cls-1" d="M1006.49,149.36C978.82,169,948.57,182.45,917,194.51a.69.69,0,0,0,.4,1.31c33.38-7,63.5-24.28,89.61-45.79.38-.31-.14-.95-.54-.67Z"/><path class="cls-1" d="M817.22,357.8c-24.74,8.16-44.88,21.63-61.08,42.09-.22.28.15.65.41.39,17.2-17.55,38.15-32.4,60.83-41.94.33-.13.19-.65-.16-.54Z"/><path class="cls-1" d="M822,362.08c-16,9.52-32.33,19.06-47.63,29.74a.47.47,0,0,0,.49.79c16.32-9,32-19.5,47.65-29.71a.48.48,0,0,0-.51-.82Z"/><path class="cls-1" d="M826.92,370c-14.58,9.05-30.68,17.72-43.68,28.95-.57.49.19,1.24.76,1,15.33-7.61,29.54-19.1,43.47-29,.56-.39,0-1.27-.55-.91Z"/><path class="cls-1" d="M835.83,376.23c-10.24,3.73-20.17,9.47-27.1,18a.63.63,0,0,0,.91.87c8.23-7.05,16.53-13.23,26.71-17.18,1.06-.41.57-2.11-.52-1.72Z"/><path class="cls-1" d="M840.29,384.15c-4.25,2.53-8.47,5.08-12.74,7.57-3.82,2.24-8,4.26-11.35,7.13-.42.36.07,1.15.58.94,4.09-1.74,7.75-4.52,11.47-6.94,4.14-2.69,8.32-5.32,12.49-8a.43.43,0,0,0-.45-.73Z"/><path class="cls-1" d="M941.17,349.9c-23,40.7-53.71,72.54-90.16,101.3-.45.36,0,1.13.49.8,38.62-25.06,68.75-61.42,90.69-101.54a.58.58,0,0,0-1-.56Z"/><path class="cls-1" d="M916.17,404.73c-15.7,14.9-33,28.63-48,44.2a.84.84,0,0,0,1,1.28c17.95-11.8,33.67-28.63,47.91-44.59a.65.65,0,0,0-.94-.89Z"/><path class="cls-1" d="M917,398.94c-17,21.07-36.56,38.68-56.13,57.25-.87.82.34,2.36,1.32,1.64,21.51-15.84,39.58-36.89,55.75-58,.5-.65-.41-1.55-.94-.89Z"/><path class="cls-1" d="M862,457.18C824.08,487,784,507.8,739.3,525.47a.62.62,0,0,0,.36,1.18c45.59-11.37,88.66-36.95,122.85-68.83.34-.32-.15-.93-.52-.64Z"/><path class="cls-1" d="M832.53,467.13c-28.68,17.47-58.79,31.83-88,48.25-.59.34-.15,1.37.51,1.11,30.88-12.05,60.35-30.41,88-48.48a.52.52,0,0,0-.54-.88Z"/><path class="cls-1" d="M811.52,471.36c-20.28,10.74-43,20.29-61.52,33.83-.54.39-.2,1.43.51,1.14,21.34-8.6,41.51-22.82,61.38-34.38.39-.22,0-.8-.37-.59Z"/><path class="cls-1" d="M816,463.14c-14.89,5.69-30.55,11.59-44.08,20.14-.63.4-.18,1.54.56,1.23,14.84-6.21,29-13.95,43.92-20.07.8-.33.43-1.62-.4-1.3Z"/><path class="cls-1" d="M276.14,527.46c-28.11,14.64-53.28,32.7-72.81,58-.35.45.22,1,.64.62,22.13-21.76,45.55-42.4,72.57-57.93.43-.25,0-.88-.4-.65Z"/><path class="cls-1" d="M269.48,539.52c-17.09,9-34.56,20.42-46.36,36a.56.56,0,0,0,.81.78c15.24-12.44,29.44-25.19,46.68-34.93,1.22-.69.09-2.48-1.13-1.84Z"/><path class="cls-1" d="M270.58,548.92c-13.13,8.68-28,17.42-39.2,28.5-.57.55.18,1.35.83,1,14-7.23,26.8-18.54,39.12-28.3.7-.56,0-1.74-.75-1.22Z"/><path class="cls-1" d="M283.15,554.18c-12,8.1-25.47,16.22-35.67,26.59a.73.73,0,0,0,.91,1.13c12.85-6.79,24.49-17.35,35.71-26.54.67-.55-.24-1.66-1-1.18Z"/><path class="cls-1" d="M293.24,562.79c-9.14,5.29-19.49,10.05-27.53,16.93a.92.92,0,0,0,.93,1.51c9.76-4.1,18.66-11.2,27.48-17a.85.85,0,0,0-.88-1.45Z"/><path class="cls-1" d="M513.07,562.42c-26.58-24.37-67.22-44.19-103.72-45-1,0-1.08,1.46-.17,1.73,19.41,5.82,38.49,9.45,57.06,18.07,16.17,7.51,30.43,17.51,45,27.61,1.44,1,3.05-1.29,1.79-2.45Z"/><path class="cls-1" d="M516.69,560c-19.92-22-53.42-41.73-83.22-45.1-1.23-.13-2.23,1.63-.86,2.25C447,523.66,462.1,528,476.06,535.62s26.07,17.52,38.86,26.84c1.46,1.07,2.85-1.23,1.77-2.42Z"/><path class="cls-1" d="M520.48,564.28c-13.48,4.49-27.13,12.05-35.3,24.06-.32.49.38,1.17.84.8,11.18-8.87,21.66-17.61,34.93-23.3.94-.4.55-1.9-.47-1.56Z"/><path class="cls-1" d="M516.72,565.16a85,85,0,0,0-17.79,5.76c-4.82,2.17-11.18,4.68-14.15,9.25-.51.78.38,1.53,1.13,1.39,5-.94,9.63-4.84,14.14-7.09a145.48,145.48,0,0,1,17.33-7.15,1.13,1.13,0,0,0-.66-2.16Z"/><path class="cls-1" d="M518.73,557.18c-5.71,2.44-11.42,4.9-17.06,7.49-5.42,2.49-11.85,4.6-16.29,8.6a1.33,1.33,0,0,0,1,2.22c5.38-.79,10.55-4,15.44-6.26,6.15-2.89,12.22-6,18.27-9.05,1.66-.84.39-3.75-1.36-3Z"/><path class="cls-1" d="M507.58,555.29c-8.44,6.61-18.34,8.93-28,12.87a.57.57,0,0,0,.19,1.1c10.81.56,20.79-6.12,28.74-12.84.63-.53-.25-1.64-.91-1.13Z"/><path class="cls-1" d="M503.4,548.41c-5,2.59-9.83,5.58-14.67,8.46-4.17,2.49-9.8,4.73-12.92,8.5a1.22,1.22,0,0,0,1.23,2c4.79-1.08,9.3-5.09,13.41-7.7,4.76-3,9.6-6,14.17-9.28a1.16,1.16,0,0,0-1.22-2Z"/><path class="cls-1" d="M500.61,547.71c-3.88,1.85-7.78,3.66-11.69,5.46-3.65,1.68-7.06,3.08-10,5.8-.58.52.1,1.25.71,1.14,4-.69,7.25-2.57,10.86-4.44,3.81-2,7.62-3.92,11.46-5.84,1.45-.72.12-2.8-1.31-2.12Z"/><path class="cls-1" d="M494.94,549.7c-4.37,1.88-8.86,3.6-13.05,5.85a.4.4,0,0,0,.32.72c4.46-1.52,8.74-3.61,13.05-5.49.66-.29.34-1.37-.32-1.08Z"/><path class="cls-1" d="M544.48,623.73c-14.23-3.79-34.19-4.53-47.85,1.66-1.37.63-.42,2.46.77,2.53,7.72.42,15.67-1.39,23.41-1.81s15.65-.12,23.48-.51a1,1,0,0,0,.19-1.87Z"/><path class="cls-1" d="M549.05,625.36c-14.42,3.69-30.93,6.3-44.35,12.79-1.54.74-.69,3.34,1,3.17,14.81-1.55,30.25-8.05,44.44-12.49a1.81,1.81,0,0,0-1.05-3.47Z"/><path class="cls-1" d="M547.09,633.7q-10.22,2.5-20.3,5.47c-5.94,1.77-12.27,3.14-17.57,6.43a1.2,1.2,0,0,0,.67,2.21c6.23-.29,12.23-2.73,18.12-4.64,6.68-2.15,13.28-4.49,19.85-7a1.31,1.31,0,0,0-.77-2.51Z"/><path class="cls-1" d="M545.65,642.3a75.57,75.57,0,0,0-17.18,3.82c-4.52,1.62-9.93,3.4-12.51,7.68a1,1,0,0,0,.87,1.41c4.92-.21,9.22-3.42,13.73-5.19a84.81,84.81,0,0,1,15.65-4.4c1.87-.35,1.35-3.53-.56-3.32Z"/><path class="cls-1" d="M534.48,654.21l1.66.57c2,.67,2.69-2.93.3-3l-1.69-.06a1.19,1.19,0,0,0-.53,2.21l1.54.72c2.15,1,3.18-2.54,1.09-2.83l-1.74-.25a1.36,1.36,0,0,0-.63,2.65Z"/><path class="cls-1" d="M533.21,652.94a10.92,10.92,0,0,1-10,9.75.87.87,0,0,0,.07,1.73,12,12,0,0,0,13-11.59c.08-2-3-1.85-3.12.11Z"/><path class="cls-1" d="M127.22,687c-22.35,16.1-45.15,32.35-65.32,51.17-.39.36.14,1,.58.71,23.21-14.88,44.6-33,65.73-50.65.69-.58-.26-1.76-1-1.23Z"/><path class="cls-1" d="M132.9,696.81C115,711.55,94.31,725.32,79,742.81a.84.84,0,0,0,1,1.28c19.9-12.28,36.91-30.4,54.5-45.71,1.11-1-.53-2.47-1.63-1.57Z"/><path class="cls-1" d="M606.73,532.63c-8.11,5-16.32,9.83-24.51,14.71-7.13,4.26-15.71,8.31-21.52,14.29a1,1,0,0,0,1,1.59c7.87-2.82,15.05-8.93,21.89-13.68,7.84-5.45,15.64-10.94,23.56-16.26a.38.38,0,0,0-.4-.65Z"/><path class="cls-1" d="M603.56,530.09a94.91,94.91,0,0,0-27.11,10.84c-7,4.1-17.05,9.88-20.78,17.34a1.54,1.54,0,0,0,2.14,2c7.6-3.72,13.62-11.08,21-15.54a124.84,124.84,0,0,1,25.72-11.5,1.66,1.66,0,0,0-1-3.18Z"/><path class="cls-1" d="M600.74,529.45a72.47,72.47,0,0,0-22,12c-5.14,4.11-12.47,9.8-13.77,16.59a1.19,1.19,0,0,0,1.76,1.28c5.45-3.2,9.08-9.65,13.91-13.82a77.63,77.63,0,0,1,21.15-12.69c2.07-.86,1.17-4.16-1-3.4Z"/><path class="cls-1" d="M604.64,536.87l-14.46,8.83c-4.37,2.67-9.13,5.16-12.93,8.63a1.55,1.55,0,0,0,1.56,2.54c4.82-1.84,9.17-5,13.53-7.67l14.39-8.93c2.18-1.36.1-4.74-2.09-3.4Z"/><path class="cls-1" d="M589.22,496.3c-15.82,5-35.19,11.6-47.05,23.72-.58.59.06,1.81.89,1.45,7.23-3.11,13.73-7.9,20.59-11.73a230.41,230.41,0,0,1,25.85-12.51c.57-.23.32-1.12-.28-.93Z"/><path class="cls-1" d="M583.53,506q-8.4,3.76-16.71,7.69c-5.32,2.51-11.78,4.72-16.15,8.7-.73.66.11,1.64.91,1.48,5.47-1.09,10.81-4.75,15.71-7.38q8.46-4.53,16.81-9.23c.67-.38.16-1.59-.57-1.26Z"/><path class="cls-1" d="M581.11,517.8c-5.4,2.73-10.93,5.19-16.36,7.84-4.72,2.3-10.36,4.37-14.06,8.16-.62.63.08,1.48.83,1.34,5.19-.95,10.14-4.54,14.66-7.16,5.21-3,10.31-6.22,15.55-9.16.68-.38.06-1.36-.62-1Z"/><path class="cls-1" d="M580.23,531.66c-5.67,3.46-11.71,6.63-16.92,10.76a.9.9,0,0,0,.94,1.53c6-2.8,11.58-6.77,17.22-10.28a1.18,1.18,0,0,0-1.24-2Z"/><path class="cls-1" d="M617.28,328.32c-8.43,18.79-18.75,38.59-23.72,58.63a1,1,0,0,0,1.79.69c10.5-17.77,17-39.11,24.2-58.44.48-1.3-1.71-2.14-2.27-.88Z"/><path class="cls-1" d="M624.39,332.88c-9.45,19.57-20.62,39.9-26.78,60.79-.28.94,1.08,1.39,1.56.6,11.24-18.56,18.68-40.44,26.74-60.56.4-1-1-1.85-1.52-.83Z"/><path class="cls-1" d="M625.18,356.42c-4.83,11.48-10.18,23.05-13.59,35.05a.93.93,0,0,0,1.72.66c5.76-11.06,9.81-23.15,14.18-34.82.48-1.3-1.76-2.18-2.31-.89Z"/><path class="cls-1" d="M629.73,372c-7.19,10.44-13.21,22.22-13.83,35.07,0,.77,1.07.78,1.28.12,3.81-12,7.15-23.66,14-34.4.57-.9-.84-1.63-1.42-.79Z"/><path class="cls-1" d="M632.38,381.21c-3.81,7.4-9.3,15.77-11,24-.15.73.83,1.39,1.36.74,5.24-6.55,8.18-16.05,11.45-23.71.51-1.2-1.19-2.19-1.81-1Z"/><path class="cls-1" d="M632.87,389.87c-4.11,6.94-8.25,13.84-11.85,21.06a.75.75,0,0,0,1.31.72c4.47-6.72,8.39-13.75,12.37-20.77a1,1,0,0,0-1.83-1Z"/><path class="cls-1" d="M595.27,404.92c-4.62,17.06-10.66,35.17-12.41,52.78a1.25,1.25,0,0,0,2.33.55c6.36-16.51,9.11-35.41,12.66-52.71a1.33,1.33,0,0,0-2.58-.62Z"/><path class="cls-1" d="M604.44,415.48c-5.27,9.18-11.58,22.34-10.3,33.15.1.84,1.41,1.39,1.81.43,1.94-4.6,2.38-9.68,3.74-14.48a121.2,121.2,0,0,1,6.88-17.93,1.22,1.22,0,0,0-2.13-1.17Z"/><path class="cls-1" d="M601.17,437.28c1.8,1.44-1.22,4.68-2.13,6a4.88,4.88,0,0,0-.46,5.21c1.15,2,5.22,4.09,5.44.34.05-1-1.27-1.07-1.72-.4a7,7,0,0,1-.92-2.72c.27-1.38,1.76-2.86,2.32-4.18,1-2.24,1.21-4.74-1.17-6.1-1.12-.64-2.41,1-1.36,1.86Z"/><path class="cls-1" d="M605.7,436.58c-.74,2.44-1.5,4.87-2.2,7.31-.62,2.19-1.55,4.44-1.3,6.73.11.9,1.36,1.65,2,.78,1.41-1.82,1.81-4,2.43-6.19.75-2.62,1.41-5.26,2.1-7.9.52-2-2.48-2.66-3.07-.73Z"/><path class="cls-1" d="M603.12,439a.1.1,0,0,0,0-.2.1.1,0,1,0,0,.2Z"/><path class="cls-1" d="M596.25,425.09c-3.14,7.86-7.79,16.52-8.16,25.05a1,1,0,0,0,1.64.62c5.32-6.73,7.42-16.25,10.18-24.26.72-2.09-2.83-3.48-3.66-1.41Z"/><path class="cls-1" d="M591.42,432.7c-2.08,4.49-4.54,9-5.95,13.71-.58,1.95,2.16,2.76,3.16,1.22,2.61-4,4.35-8.63,6.35-13,1.08-2.36-2.46-4.33-3.56-2Z"/><path class="cls-1" d="M567.29,624.75c-1,.62-2.27,1-3.24,1.67s-1.87,1.29-2.78,2c-1.49,1.09-3.44,2.11-3.52,3.73,0,.43.72,1,1.53.93,2.47-.39,3.56-1.62,4.93-2.77.83-.7,1.65-1.4,2.44-2.12s1.33-1.8,2.17-2.62c.47-.45-.94-1.14-1.53-.77Z"/><path class="cls-1" d="M576.34,621a52.12,52.12,0,0,0-11.23,7.29c-3.14,2.68-6.77,5.48-7.27,9.76-.08.64.45,1.4,1.19,1.12,3.59-1.37,5.49-4.46,8.19-7.08a80,80,0,0,1,10.68-8.57,1.48,1.48,0,0,0-1.56-2.52Z"/><path class="cls-1" d="M577.67,627.48c-2.7,2.39-5.39,4.75-7.95,7.3-2.27,2.27-4.39,4-5.15,7.22a1.09,1.09,0,0,0,1.37,1.28c3.09-1,4.71-3.21,6.79-5.63,2.36-2.74,4.52-5.6,6.71-8.47a1.23,1.23,0,0,0-1.77-1.7Z"/><path class="cls-1" d="M585.84,632a28.28,28.28,0,0,0-13.71,7c-3.25,3-7.63,8-6.93,12.68.13.89,1.18,1.81,2.08,1.11,3.34-2.61,4.81-7,7.66-10.19a39.28,39.28,0,0,1,11.69-8.82c1-.52.21-1.95-.79-1.74Z"/><path class="cls-1" d="M586.48,640.67c-4.43,1.87-8.32,3.61-12.05,6.76-3.11,2.62-7.19,6.29-7.36,10.61-.05,1.19,1.33,1.64,2.23,1.19,3.29-1.65,5.33-5.66,7.84-8.3a49.59,49.59,0,0,1,10.12-8.52c.92-.54.25-2.18-.78-1.74Z"/><path class="cls-1" d="M593.8,645.52c-4.77,3.68-9.77,7.06-14.52,10.77-3.75,2.93-8.78,5.86-11,10.1a1.36,1.36,0,0,0,1.57,1.94c4.6-1.39,8.44-5.76,12-8.86,4.56-4,8.85-8.23,13.37-12.2.95-.84-.39-2.53-1.41-1.75Z"/><path class="cls-1" d="M601.15,653.18c-11.15,4.71-23.06,12.09-29.67,22.6-1.14,1.82,1.44,3.4,2.87,2.11,9-8.17,17-16.79,27.37-23.45.64-.41.19-1.58-.57-1.26Z"/><path class="cls-1" d="M611.14,658.39c-12.35,8-25.4,16.07-36,26.35-1,1,.35,2.55,1.54,1.9,12.88-7.11,24.42-17.29,35.63-26.77.85-.71-.29-2.07-1.2-1.48Z"/><path class="cls-1" d="M391.25,494.46c-30.89-.74-63.88,3.19-92.27,16.11-1.25.57-.28,2.49,1,2.14,30.51-8.55,59.4-15.75,91.36-16.62a.82.82,0,0,0-.06-1.63Z"/><path class="cls-1" d="M392.74,490.15c-26.45-8.11-62.13-3.68-83.05,15.65-.65.6.08,1.88.93,1.51,11.65-5.16,22.62-11.3,35.14-14.31,15.47-3.72,31-3.36,46.68-1.59a.65.65,0,0,0,.3-1.26Z"/><path class="cls-1" d="M341.6,494.23c-32.56,2.29-74.19,16.4-94.48,43.58-.53.7.16,1.75,1,1.25,14.44-8.37,27-19.13,42.19-26.41C306.71,504.8,324.2,500,342,496.57c1.33-.26.94-2.44-.4-2.34Z"/><path class="cls-1" d="M347.08,496.94c-27.8,7.48-60.58,20.29-81.49,40.69-.69.67.22,1.56,1,1.21,12.95-6.12,24.77-14.61,37.59-21.09a443.94,443.94,0,0,1,43.57-18.68,1.11,1.11,0,0,0-.64-2.13Z"/><path class="cls-1" d="M342.2,504C322.8,507.82,297,516.81,283,531.35c-.66.69.06,2,1,1.64,9.06-3.48,17.25-9.39,26-13.7,10.63-5.26,21.66-9.42,32.67-13.79a.76.76,0,0,0-.44-1.46Z"/><path class="cls-1" d="M340.59,508.9c-7.59,3.07-15,6.7-22.34,10.24-7.19,3.44-15.22,6.49-21.25,11.78-.78.68.13,1.7.94,1.54,7.48-1.48,14.46-5.74,21.22-9.15,7.58-3.82,15.25-7.58,22.57-11.89,1.33-.78.35-3.12-1.14-2.52Z"/><path class="cls-1" d="M339.64,515.29c-5.29,2.39-10.48,4.93-15.63,7.63-4.79,2.51-11.25,4.74-14.84,8.87-.49.58-.16,1.75.73,1.63,5.06-.68,9.73-4.21,14.13-6.65,5.57-3.08,11.06-6.24,16.44-9.65.93-.59.25-2.32-.83-1.83Z"/><path class="cls-1" d="M347.49,517.05c-4.5,2.6-9,5.18-13.49,7.83-3.48,2.06-8.55,3.94-10.64,7.51a1.05,1.05,0,0,0,.95,1.55c4.14-.26,8.08-3.94,11.49-6.13,4.38-2.8,8.72-5.67,13.06-8.53a1.31,1.31,0,0,0-1.37-2.23Z"/><path class="cls-1" d="M346.2,526.08c-5.75.19-11.74,3-14.33,8.39-.23.47.39,1,.77.56,3.68-4,8-7,13.62-7.36a.8.8,0,0,0-.06-1.59Z"/><path class="cls-1" d="M444.77,519.24C416.06,503.45,373,487.33,341.58,503.7c-.81.42-.4,1.9.53,1.75,38.77-6.07,65.65,4.47,101.77,16.1,1.36.44,2.1-1.64.89-2.31Z"/><path class="cls-1" d="M474.13,722.62A329.76,329.76,0,0,1,441,743.53C429.68,749.85,417,754.07,406,761a.88.88,0,0,0,.72,1.59c24.78-4.77,49.06-23.41,68.14-39,.53-.44-.21-1.36-.77-1Z"/><path class="cls-1" d="M480.87,733.5c-10.91,7.17-22.18,13.82-33.69,20s-24,10.72-35,17.55a1,1,0,0,0,.85,1.89c24.46-6.6,48.11-23.82,68.44-38.39.62-.45,0-1.45-.63-1Z"/><path class="cls-1" d="M484.69,736.53C466.15,751.58,445.49,761,424,770.91c-1,.45-.2,1.83.73,1.62,23.09-5.09,44-19.1,61.53-34.48,1.08-.95-.52-2.38-1.59-1.52Z"/><path class="cls-1" d="M528.07,668.89a.11.11,0,1,0,0-.21.11.11,0,0,0,0,.21Z"/><path class="cls-1" d="M527.94,667.81c-24.15,37.46-52.69,61.41-87.29,88.5a1.23,1.23,0,0,0,1.29,2.1c37.39-17,69.21-53.73,88.36-89.31a1.35,1.35,0,0,0-2.36-1.29Z"/><path class="cls-1" d="M71.49,749.93c13.63,14.88,34.1,27.8,54.78,28.44,1,0,.9-1.26.15-1.54-20-7.69-37.16-14.1-54-27.89a.68.68,0,0,0-.94,1Z"/><path class="cls-1" d="M64.85,764.44c15.29,7.92,31.41,16.43,47.86,21.62,1.25.4,1.88-1.46.81-2.09-14.9-8.66-32-14.82-48.19-20.79-.72-.27-1.15.91-.48,1.26Z"/><path class="cls-1" d="M142.63,782.55c38.07,6.23,76.63,8.7,115.14,5.42a.52.52,0,0,0,0-1c-38.47-.11-76.64-1.14-115-5.07-.43,0-.62.61-.16.68Z"/><path class="cls-1" d="M285.17,771.5c-36.9,4.91-72.92,7.21-110.08,8.78a1.2,1.2,0,0,0,.09,2.39c36.28,2.12,74.74-2.19,110.05-10.78.22,0,.16-.42-.06-.39Z"/><path class="cls-1" d="M287.85,760.66c-27.87,3.58-56.25,3.49-84,7.28a.8.8,0,0,0,0,1.6c27.52,1.79,56.84-3.34,84-7.52.85-.13.83-1.48,0-1.36Z"/><path class="cls-1" d="M320.58,744.78c-22.52,6.2-45.46,9.45-68.3,14-1.2.24-.78,2,.33,2,23.52.38,46.7-6.21,68.27-15.05a.52.52,0,0,0-.3-1Z"/><path class="cls-1" d="M326,734.56c-16.79,4-34.12,7.34-50.25,13.58-.8.31-.71,1.76.26,1.6,17.15-2.87,33.81-8.78,50.37-13.94a.65.65,0,0,0-.38-1.24Z"/><path class="cls-1" d="M387.27,778.23c-22.56,2.62-44.9,6.57-67.57,8.39s-45.49.68-68.15,2.3c-1.4.1-1.79,2.38-.26,2.59,43.34,5.71,94.22.22,136.29-11.43,1-.28.78-2-.31-1.85Z"/><path class="cls-1" d="M390,780.09c-36,6.26-73.91,8.4-109.29,16.75-2.29.54-1.37,3.61.63,3.77,35.36,2.86,75.94-7.36,109.41-18,1.64-.52.85-2.76-.75-2.48Z"/><path class="cls-1" d="M429.89,761.35C399.4,774,368,780.91,335.83,787.72c-1.3.28-.88,2.26.38,2.25,33.22-.39,65.33-11.63,94.25-27.36.68-.37.17-1.57-.57-1.26Z"/><path class="cls-1" d="M460.08,499c9,10.2,16.91,21.76,27.83,30,.53.4,1.39-.14,1-.79C481.5,516.6,470.54,507.78,461,498c-.61-.62-1.48.33-.92,1Z"/><path class="cls-1" d="M461.93,488.79a155.66,155.66,0,0,1,18.74,23.52c5,7.78,8.51,16.57,14,24,.59.79,2.28.6,2.09-.64-2.88-18.8-19-36.89-32.28-49.58-1.76-1.68-4.26,1-2.59,2.72Z"/><path class="cls-1" d="M479.3,503.37c3.8,6.77,7.54,13.58,11.45,20.3,3.47,6,6.79,12.79,11.75,17.67a1.52,1.52,0,0,0,2.49-1.53c-2.06-6.66-6.6-12.73-10.32-18.56-4.17-6.55-8.5-13-12.77-19.48a1.53,1.53,0,0,0-2.6,1.6Z"/><path class="cls-1" d="M492.88,518.57a224.34,224.34,0,0,1,12.85,19.29c3.64,6,6.38,12.79,10.84,18.26.77.94,1.91-.19,1.76-1.08-1.24-7.31-5.73-14.15-9.64-20.31A131.3,131.3,0,0,0,494.8,517c-.94-1-2.78.42-1.92,1.55Z"/><path class="cls-1" d="M508.54,527.44A169.17,169.17,0,0,0,516,543.22c2.72,5,5.18,10.52,9.23,14.62.71.72,1.75-.09,1.56-1-1.15-5.33-4.23-10.19-6.79-15a170.24,170.24,0,0,0-9.39-15.41c-.68-1-2.56-.32-2,.92Z"/><path class="cls-1" d="M517.85,526.64a146.13,146.13,0,0,1,8.88,14.76c2.52,5.11,4.52,10.45,7,15.56.32.63,1.33.27,1.29-.39-.68-11.51-7.62-23.24-16-30.9a.78.78,0,0,0-1.2,1Z"/><path class="cls-1" d="M718.57,553.5a79.21,79.21,0,0,0-12.11,10c-3.19,3.22-7.17,7-8.64,11.33a.86.86,0,0,0,1.27.92c3.7-2.59,6.38-6.94,9.46-10.25,3.5-3.78,7.25-7.31,11-10.8.68-.62-.25-1.77-1-1.25Z"/><path class="cls-1" d="M718.77,562l-8.59,8.66c-2.45,2.47-5.82,4.95-7.16,8.2a.82.82,0,0,0,1.14,1.09c3.15-1.58,5.36-5.12,7.64-7.75l8-9.23a.7.7,0,0,0-1-1Z"/><path class="cls-1" d="M723.27,568.26a28.4,28.4,0,0,0-9.84,6.16c-2.15,2.05-6.07,5.86-5.6,9.07a.9.9,0,0,0,1.35.72c1.29-.69,1.58-1.52,2.38-2.77a29.41,29.41,0,0,1,3.64-4.61,31.46,31.46,0,0,1,9.1-6.29c1.3-.61.31-2.78-1-2.28Z"/><path class="cls-1" d="M727.29,575.8c-2.26,2.17-4.72,4.11-7,6.28-1.79,1.72-4,3.4-4.92,5.75-.21.55.47,1.13,1,.93,2.32-.91,4-3.22,5.68-5,2.15-2.28,4.05-4.75,6.2-7,.58-.62-.35-1.5-1-.91Z"/><path class="cls-1" d="M730.88,585.05c-2.31,1.36-4.62,2.7-6.86,4.16a.4.4,0,0,0,.42.68c2.33-1.32,4.58-2.75,6.85-4.17a.39.39,0,0,0-.41-.67Z"/><path class="cls-1" d="M449,532c-11,4-25.07,12.66-31.29,23-.32.52.34,1.1.84.8,5.36-3.31,9.88-8,15.05-11.69s10.83-6.8,16.26-10.18c1-.61.29-2.31-.86-1.89Z"/><path class="cls-1" d="M468.53,537.35c-13.82,4.87-30.25,12.06-40.49,22.81a.58.58,0,0,0,.72.9c6.83-3.49,12.92-8.51,19.6-12.33s13.55-7.34,20.49-10.66c.41-.19.1-.87-.32-.72Z"/><path class="cls-1" d="M480.63,541.75c-6.64,3.89-13,8.31-19.57,12.3s-13.85,7.11-20.05,11.53c-.78.56-.28,1.92.71,1.59,7.28-2.37,14.14-7.06,20.55-11.16a122.46,122.46,0,0,0,18.59-14,.18.18,0,0,0-.23-.28Z"/><path class="cls-1" d="M485.07,553.1c-5.58,3.78-11.06,7.7-16.52,11.67-4.2,3.05-9.93,6-12.55,10.58a.6.6,0,0,0,.7.86c5.6-1.44,10.49-6.94,14.92-10.51q7.17-5.76,14.16-11.73c.49-.42-.18-1.23-.71-.87Z"/><path class="cls-1" d="M487,567.68c-4,2.69-8.08,5.39-12,8.2-3.1,2.2-7.4,4.39-9.25,7.81a1,1,0,0,0,1.13,1.38c4.08-.84,7.84-4.8,11.06-7.33,3.53-2.75,7-5.58,10.43-8.42.94-.77-.33-2.3-1.33-1.64Z"/><path class="cls-1" d="M519.8,676.38c-17.39-1.1-38,3.15-54.15,9.54-.55.21-.49,1.18.19,1.1,17.87-2.12,36.8-4.69,54.2-9.21.86-.22.54-1.38-.24-1.43Z"/><path class="cls-1" d="M515,684.36c-8.87,1.45-17.63,3.35-26.39,5.32-8.56,1.94-18,2.92-25.84,7-.66.34-.25,1.27.39,1.29,8.26.19,16.55-2.82,24.55-4.72,9.24-2.21,18.47-4.44,27.57-7.19.9-.28.71-1.86-.28-1.69Z"/><path class="cls-1" d="M503.76,697.89c-7.8,2.15-15.37,5-23.28,6.81s-16.08,2.15-23.74,4.51c-.92.29-1,1.84.07,2,15,2.17,34.9-4.09,47.75-11.54a1,1,0,0,0-.8-1.77Z"/><path class="cls-1" d="M491.08,711.29c-10.14,2.54-20.85,4.38-30.67,8-1.12.41-1,2.4.37,2.21,10.48-1.54,20.82-5,31.07-7.68,1.63-.43.87-2.92-.77-2.52Z"/></svg>