<svg id="Layer_1" data-name="Layer 1" xmlns="http://www.w3.org/2000/svg" viewBox="0 0 1080 1080"><defs><style>.cls-1{fill:#f7f4eb;}</style></defs><path class="cls-1" d="M566,471C576.81,372,621.83,263.65,720,222.22,761,204.88,805.26,201.43,849.11,197c38.84-3.93,83.09-7.5,115.41-31.52,2.05-1.53.79-5.26-2-4.33-47.54,16.1-93.26,23.57-143,29.11-44.83,5-86.65,14.25-125.56,38-83.72,51.1-125.13,147.59-132.67,242.32-.21,2.66,4.43,3.15,4.72.46Z"/><path class="cls-1" d="M956,170.31c14.11-7.64,28.22-16,43.12-22,6.86-2.78,14.17-5.65,21.66-5.94,15.77-.62,27.49,13.18,17.81,27.55-.94,1.39.92,2.58,2.11,2,16.69-7.94,3.84-30.3-9.63-34-25-6.83-58.69,16-75.6,31.75-.37.35.12.88.53.66Z"/><path class="cls-1" d="M1037.3,166.83C966.9,309.92,897.72,493.52,724.36,535.26c-6.05,1.45-3.22,10.61,2.81,9.22,177.47-40.78,249.82-226.41,312-376.64.5-1.22-1.23-2.25-1.84-1Z"/><path class="cls-1" d="M1043,160.88c-9.73,12.16-20.84,26.2-26.34,40.84-.4,1.07,1.1,1.58,1.78,1,11.42-10.2,20.69-25.95,28.29-39.08,1.29-2.23-2-4.82-3.73-2.73Z"/><path class="cls-1" d="M1045.8,161.86c-14.19,13.36-25.74,32.11-32.55,50.23-.38,1,1.18,1.47,1.7.66,10.71-16.59,22-33,32.48-49.7.63-1-.83-2-1.63-1.19Z"/><path class="cls-1" d="M561,550.88c12-18.17,22.63-36.91,36-54.25C607.42,483,620.33,471,629.8,456.71c1-1.46-1.07-3.38-2.48-2.36-29,20.86-55.56,62.39-69.78,94.64a2,2,0,0,0,3.45,1.89Z"/><path class="cls-1" d="M627.28,452.25c14-2.95,11.87-20.88,4.21-29.44-1.2-1.35-3.14-.62-4,.62-25,35.8-95.86,52.38-94.07,104.28.1,2.87,4.4,3.34,5.05.5,7.54-33,30.74-50.08,57.19-68.32,8.22-5.67,16.44-11.55,23.61-18.55,1.85-1.79,7.61-9.83,9-10.12,8.06-1.72-.35,17.87-1.59,20.28a.53.53,0,0,0,.61.75Z"/><path class="cls-1" d="M558.73,554.81c-.76-13-9.85-22.69-21-28.6-23.43-12.47-47.52-20.11-44.4-52.34.11-1.12-1.48-1.25-2-.47-7.75,12.42-1.76,27.29,7.82,37.11,6.54,6.69,15.07,11,23.49,14.78,16.12,7.24,25.44,12.77,33,30,.65,1.49,3.13,1.39,3-.5Z"/><path class="cls-1" d="M492.39,477.42l.63-1.31a1.59,1.59,0,0,0-.29-1.87c-3.17-3-7.11-2.21-10.06.79-6.08,6.19-3.84,18.24-.91,25.14,3.88,9.13,11.16,16.44,19,22.23,12.93,9.54,25,17.43,36.2,29,1.52,1.56,4.59-.18,3.73-2.3-4.47-11-15.26-17.48-25-23.57-6.88-4.31-14.28-8.22-20.05-14-4.42-4.44-8.74-10.56-10.55-16.66l-1.17-7.08q-.69-12.8,6.42-10.88c.15.95,1.51,1.56,2,.49Z"/><path class="cls-1" d="M515.08,564.9c47.75-14.09,88.36-54.11,139.83-55.14,29-.58,56.21,12.19,70.1,38.5,9.76,18.48,5.73,40.1,16.87,57.57a1.51,1.51,0,0,0,2.72-1.23c-6-24.11-2.88-46.31-18.49-67.47a80.49,80.49,0,0,0-53.31-32.05c-57.68-8.17-108.23,37.05-158.65,56.75-1.9.74-1.08,3.67.93,3.07Z"/><path class="cls-1" d="M745.69,609.78c-22.54,4.64-41.88-7.36-63.43-11.29-18.57-3.39-37.76-1.32-56.22,1.88-21.94,3.81-43.42,10.2-65.54,13-25.18,3.18-46.92-2.84-71.42-6.18-1.58-.21-3,1.71-1.6,3,31.57,28,89.61,8,125.52.17,28.19-6.16,56.42-10.12,84.69-2.19,16.85,4.73,32.1,11.44,48.72,3.27,1-.48.2-1.79-.72-1.6Z"/><path class="cls-1" d="M491.65,612.08c4.76-9.15,7.31-18.77,13.39-27.32s14.5-14,21.74-21.38a1.45,1.45,0,0,0-1.46-2.37c-18.06,5.5-36.54,31.76-35.33,50.67a.89.89,0,0,0,1.66.4Z"/><path class="cls-1" d="M514.16,574.2a264.71,264.71,0,0,0,34.11-16.74c10.79-6.11,23.33-11.58,32.09-20.5a2,2,0,0,0-2-3.24c-11.5,3-21.89,10.63-32,16.62-11.41,6.73-22.63,13.78-33,22.08-.79.64-.34,2.23.8,1.78Z"/><path class="cls-1" d="M547.56,552.49c-6.61,3.25-13.66,5.65-20.27,9-5.77,3-12.5,5.68-16.91,10.53a1.42,1.42,0,0,0,1.43,2.32c6.45-1.13,12.46-5.41,18-8.68,6.36-3.73,12.13-8.36,18.36-12.15.7-.42,0-1.41-.65-1.06Z"/><path class="cls-1" d="M598.32,522.84c35.27-15.93,60.92-46.56,87.7-73.36,30.54-30.56,60.07-60,93.47-87.56.83-.68-.27-1.91-1.14-1.41-33.17,19.11-59.12,50.6-84.49,78.64-29.17,32.23-59.91,58.53-95.81,83.09-.29.2-.09.76.27.6Z"/><path class="cls-1" d="M786.55,351.49c37-19.64,73.43-43.32,107.93-67.05,29-20,61.66-42.13,80.51-72.7.6-1-.8-1.91-1.58-1.15-28.64,28.11-55.53,54.82-89.4,77-32.45,21.23-67.14,39.41-98.84,61.69a1.31,1.31,0,0,0,1.38,2.23Z"/><path class="cls-1" d="M998.58,182.71c-9.61,10.14-17.25,22.1-23.32,34.63-.33.68.56,1.42,1.1.81,9.26-10.43,17.37-22.05,23.06-34.83.23-.52-.41-1.07-.84-.61Z"/><path class="cls-1" d="M965.26,237.42C933.54,266.31,900.1,290.25,863,311.79c-32,18.58-70.65,35.53-96.92,62-.91.91.3,2.21,1.35,1.67,36.49-18.69,71.7-43.35,106.84-64.69,33.06-20.08,67.55-41.83,92.48-71.91a1,1,0,0,0-1.51-1.45Z"/><path class="cls-1" d="M770.76,355.46c-33.49,17.5-60.68,47.38-85.65,75.07-13.26,14.7-26.14,29.78-39.8,44.1-14.34,15-32.35,26.55-46,41.85a1.31,1.31,0,0,0,1.63,2c15.18-7.62,27.75-22.86,39.42-35,13.72-14.28,26.85-29.08,39.95-43.92,27.93-31.63,56.24-59.08,91.56-82.4a1,1,0,0,0-1.07-1.73Z"/><path class="cls-1" d="M661.69,454.4c12.8-15.11,16.18-36.12,20-55,5.25-25.82,11.25-48.65,26.55-70.54.67-1-.8-1.87-1.57-1.16-15.4,14.32-21,34.71-25.36,54.69-5.37,24.87-11.28,47.86-20,71.83-.06.18.22.32.34.18Z"/><path class="cls-1" d="M713.39,319.59c14.94-15.8,26.5-34.41,40.69-50.85.22-.25-.14-.61-.38-.36-15.07,15.67-31,31.1-41.2,50.55a.56.56,0,0,0,.89.66Z"/><path class="cls-1" d="M657.61,476.87c48.16-.48,102.91-15.65,145.72-37.16.6-.3.15-1.28-.48-1.07-23.81,8.12-47.1,17.06-71.56,23.18s-49.3,8.68-74,13.32c-1,.19-.68,1.74.29,1.73Z"/><path class="cls-1" d="M847.69,413.3c-11.11,5.9-22.7,11-32.75,18.57-.87.65-.34,2.39.85,1.9,11.71-4.9,22-12.39,32.76-19.08a.82.82,0,0,0-.86-1.39Z"/><path class="cls-1" d="M802.15,343.3c10.11-15.56,17.73-32.65,27.79-48.31,11.37-17.7,24.36-34.11,37.24-50.7.46-.59-.32-1.38-.85-.82-25.69,27.66-52.71,63.61-65.51,99.31-.29.81.92,1.15,1.33.52Z"/><path class="cls-1" d="M881.45,226.76c-3.84,3.86-7.67,7.72-11.4,11.68-.24.24.14.6.38.36,3.87-3.83,7.63-7.74,11.4-11.67a.27.27,0,0,0-.38-.37Z"/><path class="cls-1" d="M832.73,295.27c-10.85,10-18.41,24.07-23.73,37.67-.86,2.2,2.36,4,3.28,1.8,5.78-14.1,13.88-25.54,22.49-38,.87-1.25-1-2.42-2-1.49Z"/><path class="cls-1" d="M851.57,329c28.25-1.45,61.26-7.87,85.27-23.51a1.26,1.26,0,0,0-1-2.26c-13.13,4.51-25.42,10.89-38.79,14.95a315.26,315.26,0,0,1-45.5,9.77c-.65.1-.66,1.09,0,1.05Z"/><path class="cls-1" d="M913.74,309.09c-20.12,5.82-40.08,10.53-60.89,13.07-2.09.25-2,3.58.12,3.28,20.8-3.05,41.44-7.9,61-15.65a.37.37,0,0,0-.21-.7Z"/><path class="cls-1" d="M717.28,458.53a.21.21,0,0,0,.1-.41.21.21,0,0,0-.1.41Z"/><path class="cls-1" d="M672.63,466.92c29.61,1.17,63.84-3.83,90.23-17.87.74-.39.18-1.53-.59-1.31-30.4,8.82-57.76,15.92-89.72,16.89a1.15,1.15,0,0,0,.08,2.29Z"/><path class="cls-1" d="M524.22,566.3c-38.81-34.59-84.81-70.7-137.09-80.77-43.13-8.31-85.49,4.73-121.73,28.13C225.19,539.61,194,576,163.48,612.3c-16.13,19.23-32.21,38.57-49.85,56.45-20.56,20.86-43.9,37.15-67.06,54.82-1.45,1.11-.58,3.87,1.42,3.15,40.28-14.64,71.74-51.27,98.81-82.94,29.26-34.24,56.29-70.55,90.31-100.37,35.28-30.92,78.89-55.89,127.15-54.83,62.66,1.38,110.91,43.67,157.47,80.33,1.79,1.41,4.25-1,2.49-2.61Z"/><path class="cls-1" d="M47.06,724.83c-19.67,30.48,44.2,55.25,64.07,61.7,48.24,15.63,103.2,17.88,153.54,18.24,50.93.37,104.4-3,152.63-20.65,38.46-14.1,81.16-40.48,97.48-79.93,1.05-2.53-2.19-5.66-4.25-3.11-25.13,31.11-51.21,56.34-89,71.59-40,16.15-83.49,21.05-126.28,22.88a770.46,770.46,0,0,1-129.74-4.89c-19-2.41-38-5.57-56.35-11.24-17-5.26-75.55-27.25-61.35-54.18a.43.43,0,0,0-.75-.41Z"/><path class="cls-1" d="M511.79,706c10.14-13.11,17.17-27.57,23.81-42.72,5.63-12.86,12.69-26.9,13.67-41,.1-1.35-1.73-1.47-2.34-.56-8.88,13.32-12.82,29.94-19.27,44.62-5.75,13.09-12,25.66-16.87,39.13a.6.6,0,0,0,1,.55Z"/><path class="cls-1" d="M484.48,604.92c-30.55,4-61.38,14.81-90.91,23.49-32.13,9.44-64,20-95,32.69-28.81,11.82-56.93,25.38-83.5,41.67-30.25,18.54-56.21,37.35-92.62,40.94-1.71.17-2.27,3-.32,3.24,26.76,2.85,51.18-11.79,72.89-25.67,29.6-18.93,59.37-36.43,91.63-50.53,30.66-13.4,62.38-24.29,94.38-34,34.05-10.34,70.77-16.45,103.82-29.45,1.18-.46,1.06-2.56-.4-2.37Z"/><path class="cls-1" d="M392.06,645.84c-41.57,6.51-80.38,25.39-118.66,42-41,17.77-81,31.09-124.92,39.39-1.16.21-.79,2,.33,2,41.53-1.06,82.08-18.69,119.68-34.82,40.87-17.53,81.06-34.12,124-45.92,1.43-.39,1.1-2.87-.44-2.63Z"/><path class="cls-1" d="M422.56,628.84c-19.63,9.39-39.15,16.4-59.66,23.43-1,.33-.8,2,.31,1.86,21.11-2,43.37-11,60.76-23a1.35,1.35,0,0,0-1.41-2.29Z"/><path class="cls-1" d="M460.12,617.54c-9.07,2.26-17.92,5.2-26.75,8.24-7.93,2.73-16.31,5-23.69,9-2.45,1.34-.55,4.75,1.9,4.21,9-2,17.71-6.4,26.25-9.87,7.75-3.15,15.43-6.46,22.87-10.27.76-.39.18-1.49-.58-1.3Z"/><path class="cls-1" d="M476.27,614.42c-22.16,4.89-46.46,9-66.65,19.76a1.61,1.61,0,0,0,.9,3c22.75-2.48,45.14-12.78,66.21-21.22a.79.79,0,0,0-.46-1.51Z"/><path class="cls-1" d="M473.67,609.64c-12.66-9.22-26.94-15.92-40-24.65s-25.19-18.46-38.31-27c-.47-.31-1,.42-.58.79,21.82,19.82,51.21,40.52,78.51,51.52a.36.36,0,0,0,.35-.63Z"/><path class="cls-1" d="M381.24,553c-2.9-.87-5.3-1.85-8.39-1.81a.73.73,0,0,0-.33,1.36c2.74,1.43,5.34,1.63,8.32,2.17a.88.88,0,0,0,.4-1.72Z"/><path class="cls-1" d="M347.72,548.46a82.3,82.3,0,0,0-17.78,1.67c-.65.15-.41,1.07.18,1.09a82.42,82.42,0,0,0,17.81-1.48c.75-.13.5-1.28-.21-1.28Z"/><path class="cls-1" d="M444.91,631.9c-22.73,29.81-49,55.61-73.68,83.56-.33.37.14,1,.57.71,29.37-22.28,53.32-53.42,73.63-83.88.2-.31-.3-.68-.52-.39Z"/><path class="cls-1" d="M339.74,739.68c-13.95,7.84-27.76,15.06-40.45,24.9a.65.65,0,0,0,.69,1.11c14.44-7,27-16.19,40.24-25.23a.46.46,0,0,0-.48-.78Z"/><path class="cls-1" d="M361.5,636.57c-29.26-11.06-67.47-7.64-97.62-2.27-32.59,5.79-63.35,16.31-91.66,33.4-.52.31,0,1,.48.78,31.42-14.5,64.14-25.81,98.56-30.26,30.58-4,59.73.93,90.08-.1,1,0,.94-1.26.16-1.55Z"/><path class="cls-1" d="M165.28,675.22A235.26,235.26,0,0,0,131.46,692c-.46.28-.13,1.1.4.89a235.36,235.36,0,0,0,33.71-17c.35-.2.1-.81-.29-.65Z"/><path class="cls-1" d="M544,626.64c37.52,43.93-3.12,98.41-1.69,148.16,1.17,40.81,19.58,78.51,49,106.39,15.65,14.83,33.64,27,52.12,38,16.88,10,35.45,22.12,55.64,23.58,34.2,2.47,44.58-29.24,46.56-57.68.08-1.19-1.82-1.34-2.07-.21-5.28,24.34-12.59,52.06-43.41,51-18.91-.67-37.44-13.67-53.12-23.2-38.85-23.63-75.06-52.35-90.3-96.85a146.33,146.33,0,0,1-7.38-60.62c2.05-22.32,11-43,15-64.9,4.19-23,1.89-51-19.62-64.58-.6-.38-1.09.47-.69.94Z"/><path class="cls-1" d="M566.69,620.32c1,22.49,26.94,38.94,44.23,49.35,29.94,18,60.05,33.55,85.69,58,26.46,25.24,48.09,57.3,55.92,93.47,4.55,21,4.47,43.43-1.44,64.17-5.62,19.73-17.21,33.42-28.24,50-.71,1.06.77,2.4,1.79,1.7,24.43-16.75,34.42-52.54,36.14-80.56,2.14-35-9.84-68.76-29.7-97.24C711.4,731,685,707.87,656,689.56c-15.48-9.78-32.19-17.43-47.65-27.22-18.63-11.8-27.49-25.61-40.87-42.25-.25-.31-.81-.23-.79.23Z"/><path class="cls-1" d="M746.05,856.44c.53,9.56,1.33,19.15.81,28.72s-3.14,18.88-3.45,28.4a.89.89,0,0,0,1.66.39c7.79-16.52,6.86-40.41,2.72-57.8a.89.89,0,0,0-1.74.29Z"/><path class="cls-1" d="M580.5,675.3c22.21,32.22,46.41,63,68.76,95.1,10.29,14.77,20.16,30,28,46.17,10.14,20.94,15.3,43.19,23.6,64.74a.69.69,0,0,0,1.32-.4C688.11,800.74,631,736.19,581.45,674.72c-.44-.55-1.37,0-1,.58Z"/><path class="cls-1" d="M606,722.17a839,839,0,0,0,77,127,.36.36,0,0,0,.61-.38,839.45,839.45,0,0,0-76.72-127.08.49.49,0,0,0-.84.51Z"/><path class="cls-1" d="M609.11,740.61c-14.91,36.95-14.56,78.46,3.08,114.52.24.51,1.07.13.89-.4-13-38-14.63-75-2.69-113.63.22-.73-1-1.22-1.28-.49Z"/><path class="cls-1" d="M648.28,757.13C666.19,774.88,684,792.32,704,807.79a.52.52,0,0,0,.72-.76c-17.31-18.44-36.37-34.48-55.75-50.61a.49.49,0,0,0-.68.71Z"/><path class="cls-1" d="M448.67,510.37c-22.08-51.46-58.31-94.78-75.79-148.85-18.21-56.3-14.21-110-4.79-167.28a1.05,1.05,0,0,0-2-.49c-18,49.48-14.67,108.87-.59,158.89,7.38,26.23,18.67,51.08,31.64,75,15.18,28,31,58.15,50.87,83.07.25.32.91.13.71-.32Z"/><path class="cls-1" d="M371.49,191.59c22.15,2.14,31.66,21.6,42.48,37.66,7.47,11.11,15.54,21.8,23.86,32.28,17.45,21.94,36.1,42.91,53.17,65.15C526,372.32,554.2,427,543.67,486c-.64,3.59,4.87,4.94,5.55,1.32,11.81-63.11-20.36-121.24-58.3-169.16-22.71-28.68-48-55.32-69.26-85.12-12.77-17.87-24.84-44.5-50.25-43.72-1.48,0-1.3,2.09.08,2.23Z"/><path class="cls-1" d="M391.73,237.49c5.86,35.93,17.86,70.26,34.13,102.81,18.69,37.39,45.24,68.49,57.78,108.83a1.35,1.35,0,0,0,2.63-.44c.29-34.52-30-64.32-46.28-92.62-21.43-37.28-35.57-77.44-46.53-118.87-.25-.95-1.89-.72-1.73.29Z"/><path class="cls-1" d="M442.88,353.21a210.75,210.75,0,0,1,23.22,33.12c6,10.91,9.78,22.62,14.92,33.89.52,1.15,2,.19,1.84-.83-4.25-25-21.55-49.54-39.62-66.56-.25-.23-.57.13-.36.38Z"/><path class="cls-1" d="M425.32,319.54c7.11,9.18,14.35,18.22,20.51,28.08s10.86,20.48,16.54,30.62a.72.72,0,0,0,1.3-.59c-6.28-21.68-21.18-43.36-37.39-58.89-.5-.47-1.41.2-1,.78Z"/><path class="cls-1" d="M365.22,317.15c.92,13.7,5.23,27.24,13.8,38.1.19.25.59,0,.42-.25-7.21-11.82-12.22-24-13.67-37.87,0-.35-.58-.34-.55,0Z"/><path class="cls-1" d="M366.19,291.41c-2.19,24.18.79,51.52,12.7,73.06.37.67,1.39.17,1.19-.53-6.86-24.47-12.73-46.87-13-72.56,0-.61-.86-.54-.92,0Z"/><path class="cls-1" d="M373.6,304.82c2,18.41,3.07,39.58,9.36,57.11a.69.69,0,0,0,1.35-.22c.33-18.59-5.53-39-9.49-57.09a.63.63,0,0,0-1.22.2Z"/><path class="cls-1" d="M381.77,318.48c3.83,11.85,4.86,23.53,6.5,35.77.08.63,1.14.87,1.23.12,1.46-12.15-1.87-25.11-6.41-36.29-.33-.8-1.6-.45-1.32.4Z"/><path class="cls-1" d="M369.38,211.6c-14.2,40.42-16,87.59,1.73,127.39a.75.75,0,0,0,1.44-.44c-10.64-43.22-13.9-83.18-2.53-126.79.11-.42-.5-.55-.64-.16Z"/><path class="cls-1" d="M378,353.83c19.46,57.28,45.33,116.75,78.69,167.37a.62.62,0,0,0,1.06-.65c-27-55.6-55-109.92-79.32-166.85-.11-.26-.53-.15-.43.13Z"/><path class="cls-1" d="M432.76,466.23c4.4,9.13,9.33,17.95,14.29,26.78,4.33,7.71,8.22,16.76,14.21,23.31.51.55,1.42-.08,1.21-.75-2.63-8.5-8.5-16.42-13-24.06-5.11-8.73-10.22-17.42-15.87-25.81a.51.51,0,0,0-.86.53Z"/><path class="cls-1" d="M447.31,480.58c6.42,13.36,12.88,28.13,22,39.88.39.5,1.34.21,1.09-.49-4.91-14.1-13.86-27.62-21.62-40.3-.59-1-2-.08-1.48.91Z"/><path class="cls-1" d="M461.7,492.61c2.34,4.72,4.58,9.49,6.93,14.2,2.07,4.12,3.88,8.95,7.09,12.28.57.6,1.43-.07,1.27-.78-1-4.5-4.13-8.72-6.43-12.68-2.64-4.53-5.4-9-8.05-13.51-.32-.54-1.08,0-.81.49Z"/><path class="cls-1" d="M480.87,520.22q1.8,4.72,3.58,9.44c.09.21.43.11.35-.11l-3.43-9.48c-.11-.32-.62-.17-.5.15Z"/><path class="cls-1" d="M593.94,537.28c-20.37,11.64-41.56,24.25-59.64,39.26-.61.5.2,1.32.82,1C556,567,576.05,552.63,594.8,538.68a.82.82,0,0,0-.86-1.4Z"/><path class="cls-1" d="M590.18,531.15c-17.38,11.56-36.86,22.13-52.35,36.19-.65.6.22,1.5.92,1.14,18.57-9.52,35.25-24,52.15-36.16.71-.51,0-1.67-.72-1.17Z"/><path class="cls-1" d="M596.51,541.43c-12.39,9.38-26.94,18.14-37.72,29.35a.63.63,0,0,0,.78,1C573,564,585,552.08,597.08,542.35c.53-.43,0-1.35-.57-.92Z"/><path class="cls-1" d="M722.51,556.51C705.07,512.54,646.77,515,609,524c-.51.13-.38,1,.16.93,43.4-6.18,84.64-7.94,112.81,31.81.17.24.63.08.5-.23Z"/><path class="cls-1" d="M540.37,571C528.84,577.17,516,586.45,511,599.08c-.39,1,.86,2.24,1.68,1.24,8.86-10.82,15.81-21.2,28.2-28.56.49-.29,0-1-.47-.75Z"/><path class="cls-1" d="M534.27,572.46c-12.25,6.89-25,17.14-30.56,30.48-.33.8.65,1.71,1.31,1,9.68-10.88,17.82-21.82,29.87-30.43a.59.59,0,0,0-.62-1Z"/><path class="cls-1" d="M541.19,579.91a76.66,76.66,0,0,0-15.3,10.23c-3.93,3.37-9.28,7.69-10.79,12.8a.8.8,0,0,0,1.18.85c4.19-2.72,7.15-7.8,10.74-11.32A91.16,91.16,0,0,1,541.84,581a.62.62,0,0,0-.65-1.06Z"/><path class="cls-1" d="M547.05,581.72c-5.22,3.65-10.29,7.56-15.28,11.52s-10.4,7.77-14.37,12.67a.87.87,0,0,0,1.09,1.34c5.27-2.8,9.89-7.17,14.43-11,5.12-4.33,10.2-8.76,15-13.41.58-.56-.23-1.58-.9-1.11Z"/><path class="cls-1" d="M551.07,588.27c-4.18,3.09-8.37,6.16-12.54,9.28-3.27,2.44-7.69,4.74-9.8,8.3a.88.88,0,0,0,1,1.25c4-1.17,7.63-5.12,10.88-7.72q5.79-4.65,11.55-9.33c1-.82,0-2.6-1.1-1.78Z"/><path class="cls-1" d="M539,603c26.09-3.69,53.58-7.48,79.06-14.26,1-.28.78-2-.32-1.89-26.26,2.81-53.21,9.1-78.93,15-.62.14-.46,1.21.19,1.12Z"/><path class="cls-1" d="M713.8,595.88c-27.71-11.06-61.31-12.29-89.75-3.32-.73.23-.59,1.47.23,1.38a269.94,269.94,0,0,1,88.82,3.76c1,.21,1.78-1.39.7-1.82Z"/><path class="cls-1" d="M706.2,602.41c-18.9-9.91-50.31-8.76-69.88-1.4a1,1,0,0,0,.31,1.89c11.65-.53,23.1-2.53,34.81-2.41s23,2.94,34.6,2.57a.35.35,0,0,0,.16-.65Z"/><path class="cls-1" d="M556,727.74c-5.55,27.49-6.24,58.56,3.77,85.15.22.57,1.21.5,1.13-.18-3.35-29-6.74-55.58-4-84.88.06-.53-.83-.61-.93-.09Z"/><path class="cls-1" d="M563.79,749.83C559.91,765,559,785.36,565.24,800a.86.86,0,0,0,1.67-.28c-.11-8.29-2.12-16.53-2.48-24.86s.14-16.63.33-25a.49.49,0,0,0-1-.1Z"/><path class="cls-1" d="M568.19,756.75c1,14.51.78,30,3.88,44.25.16.75,1.22.47,1.25-.21.55-14.5-2.36-29.69-4-44.08-.09-.75-1.23-.73-1.18,0Z"/><path class="cls-1" d="M577.06,767.52c.59,9.63.33,19.79,2.11,29.28.12.66,1.07.41,1.09-.18.35-9.6-1.41-19.57-2.25-29.13a.48.48,0,0,0-1,0Z"/><path class="cls-1" d="M581.11,774.26c.74,5,1.35,10.08,2.52,15a.45.45,0,0,0,.87-.14c-.31-5-1.18-10-1.92-14.93-.13-.92-1.61-.88-1.47.06Z"/><path class="cls-1" d="M569.28,690.43a147.88,147.88,0,0,0-10,64.37c0,.74,1.26.94,1.36.14,2.74-21.52,6.45-42.51,10.48-63.81.2-1-1.38-1.78-1.82-.7Z"/><path class="cls-1" d="M561.3,642.76c5.74,27.1,5.52,50.64.72,77.85a.84.84,0,0,0,1.63.39c9.38-24.52,8.39-54.26-1.6-78.47a.39.39,0,0,0-.75.23Z"/><path class="cls-1" d="M595,861.84c27.92,22.8,57.21,44.63,89.48,60.92a.47.47,0,0,0,.46-.83c-30.59-19.35-61.14-38-89.76-60.28-.13-.1-.31.08-.18.19Z"/><path class="cls-1" d="M623.83,872.09c14.76,15.72,32.09,32.22,51.16,42.6a.71.71,0,0,0,.82-1.13c-16.2-14.82-34.6-27.82-51.37-42.11a.44.44,0,0,0-.61.64Z"/><path class="cls-1" d="M640.32,877.8c12.52,10.3,25.22,21.22,39.08,29.68a.56.56,0,0,0,.65-.89c-11.64-11.31-25.41-20.89-38.51-30.45-.94-.68-2.12.91-1.22,1.66Z"/><path class="cls-1" d="M662,883.2c7.36,8.39,15,17.52,23.47,24.8.47.4,1.3-.17.89-.72-6.8-9-15.42-17.15-23.41-25.08-.64-.63-1.53.34-.95,1Z"/><path class="cls-1" d="M679.79,892.93c3.72,4.7,7.34,9.49,11.17,14.1.14.17.43-.07.3-.25-3.54-4.8-7.3-9.45-11-14.16-.23-.3-.74,0-.51.31Z"/><path class="cls-1" d="M592.93,388.51c-6.4,19.79-11.41,39.63-12.92,60.43,0,.4.64.47.71.07,3.56-20.28,7.1-40.56,12.82-60.36.11-.39-.48-.52-.61-.14Z"/><path class="cls-1" d="M603.76,345.12c-12.48,24.42-22.24,49.82-28.13,76.65a.43.43,0,0,0,.83.2c8.09-26,16.95-51.58,27.82-76.57.15-.34-.34-.62-.52-.28Z"/><path class="cls-1" d="M610.28,340.81c-11.87,23.25-20.67,48.9-24.59,74.72a.61.61,0,0,0,1.18.29c7.94-25,15.81-49.82,24.72-74.51.27-.75-1-1.2-1.31-.5Z"/><path class="cls-1" d="M618.11,336.56C606,361,595.3,386.86,589.28,413.51c-.18.81.94,1,1.22.29,9.55-25.59,18.3-51.34,28.82-76.58.33-.8-.81-1.47-1.21-.66Z"/><path class="cls-1" d="M619.66,345.78c-8.09,17.79-16.58,36.47-22.16,55.22a.54.54,0,0,0,1,.38c8.82-17.44,15.47-36.85,21.8-55.35.13-.37-.48-.6-.64-.25Z"/><path class="cls-1" d="M621.15,354.78c-6,13.51-12.49,28.16-15.88,42.51a.88.88,0,0,0,1.61.62c6.87-13.08,11.57-28.41,15.93-42.48.3-1-1.25-1.58-1.66-.65Z"/><path class="cls-1" d="M754.17,215.5c-62.1,15.65-121.71,67.36-142.64,128.5-.23.69.87,1.1,1.19.46C644,282,688.05,239.92,754.42,216.34a.44.44,0,0,0-.25-.84Z"/><path class="cls-1" d="M765.92,216.15c33.39-5.35,66.57-12.57,99.6-19.82.23-.05.12-.38-.11-.35-33.29,5.76-66.73,11.59-99.65,19.24-.51.12-.38,1,.16.93Z"/><path class="cls-1" d="M911.25,188.28c-27.18,9.79-54.84,13.46-83,18.76-.81.15-.53,1.37.23,1.38,28.48.39,57-8.73,83.11-19.17.6-.24.33-1.2-.29-1Z"/><path class="cls-1" d="M924.51,190.6c-8.57,2.7-17.23,5.24-25.92,7.51s-18,3.11-26.15,6.5a.89.89,0,0,0,.29,1.73c17,.74,36.77-7.87,52.11-14.65.66-.29.39-1.32-.33-1.09Z"/><path class="cls-1" d="M932.77,192.92a200.16,200.16,0,0,1-21.16,11.26c-7,3.35-15.37,5.24-21.92,9.38a1.18,1.18,0,0,0,.65,2.16c7.15-.41,14.46-4.36,20.81-7.5,8.07-4,15-9,22.1-14.51.46-.36,0-1.11-.48-.79Z"/><path class="cls-1" d="M935.87,201.78C925.69,208.73,915,212.52,903.66,217c-.9.35-.8,1.92.3,1.8,11.95-1.33,23.81-8.18,32.93-15.7.72-.59-.26-1.79-1-1.27Z"/><path class="cls-1" d="M993,155c-27.31,19.38-57.16,32.66-88.3,44.56a.67.67,0,0,0,.39,1.29c32.95-6.94,62.68-24,88.44-45.2.38-.3-.14-.93-.53-.65Z"/><path class="cls-1" d="M806.22,360.74c-24.42,8.05-44.3,21.35-60.28,41.54a.28.28,0,0,0,.4.38c17-17.32,37.65-32,60-41.38.32-.14.19-.65-.16-.54Z"/><path class="cls-1" d="M810.92,365c-15.83,9.4-31.92,18.81-47,29.35a.46.46,0,0,0,.48.79c16.1-8.93,31.63-19.25,47-29.33a.47.47,0,0,0-.49-.81Z"/><path class="cls-1" d="M815.79,372.8c-14.39,8.93-30.27,17.48-43.11,28.56-.56.49.18,1.23.75.94,15.13-7.51,29.16-18.85,42.91-28.61.54-.39,0-1.25-.55-.89Z"/><path class="cls-1" d="M824.58,378.94c-10.1,3.67-19.9,9.34-26.74,17.79a.62.62,0,0,0,.9.86c8.12-7,16.31-13.06,26.36-17,1-.41.56-2.09-.52-1.69Z"/><path class="cls-1" d="M829,386.74c-4.18,2.51-8.36,5-12.57,7.48-3.77,2.21-7.85,4.21-11.2,7a.56.56,0,0,0,.57.92c4-1.71,7.66-4.46,11.32-6.84,4.09-2.66,8.22-5.25,12.33-7.87a.43.43,0,0,0-.45-.73Z"/><path class="cls-1" d="M928.55,352.94c-22.71,40.18-53,71.6-89,100-.45.35,0,1.11.48.78,38.12-24.73,67.86-60.62,89.51-100.21a.58.58,0,0,0-1-.56Z"/><path class="cls-1" d="M903.88,407.06c-15.5,14.7-32.6,28.25-47.38,43.62a.82.82,0,0,0,1,1.27c17.72-11.65,33.24-28.26,47.29-44a.64.64,0,0,0-.93-.88Z"/><path class="cls-1" d="M904.72,401.34c-16.81,20.8-36.09,38.18-55.41,56.51-.85.81.35,2.33,1.31,1.62,21.23-15.63,39.07-36.42,55-57.24.49-.65-.41-1.53-.93-.89Z"/><path class="cls-1" d="M850.4,458.83c-37.41,29.38-77,50-121.09,67.4a.61.61,0,0,0,.36,1.16c45-11.22,87.5-36.46,121.25-67.93.33-.32-.15-.92-.52-.63Z"/><path class="cls-1" d="M821.33,468.65c-28.31,17.24-58,31.41-86.84,47.62-.59.33-.16,1.35.49,1.1,30.48-11.9,59.57-30,86.88-47.86a.51.51,0,0,0-.53-.86Z"/><path class="cls-1" d="M800.6,472.82c-20,10.6-42.42,20-60.73,33.39-.53.39-.19,1.41.51,1.13,21.06-8.49,41-22.53,60.58-33.93.38-.23,0-.79-.36-.59Z"/><path class="cls-1" d="M805,464.71c-14.7,5.62-30.16,11.44-43.51,19.88-.62.39-.18,1.52.55,1.21C776.7,479.67,790.69,472,805.41,466c.79-.32.42-1.6-.39-1.28Z"/><path class="cls-1" d="M272.18,528.19c-27.74,14.46-52.58,32.28-71.86,57.21-.34.44.23,1,.64.61,21.83-21.48,44.95-41.85,71.62-57.18.42-.24,0-.86-.4-.64Z"/><path class="cls-1" d="M265.61,540.09c-16.87,8.88-34.11,20.16-45.76,35.52a.56.56,0,0,0,.81.77c15-12.27,29.05-24.86,46.07-34.47,1.2-.68.08-2.45-1.12-1.82Z"/><path class="cls-1" d="M266.69,549.37c-12.95,8.57-27.59,17.2-38.69,28.13-.55.55.19,1.34.82,1,13.81-7.14,26.45-18.3,38.61-27.94.7-.55,0-1.71-.74-1.2Z"/><path class="cls-1" d="M279.1,554.56c-11.86,8-25.14,16-35.2,26.25-.6.6.2,1.48.9,1.11,12.68-6.7,24.17-17.12,35.24-26.19.67-.55-.23-1.64-.94-1.17Z"/><path class="cls-1" d="M289.06,563.06c-9,5.22-19.23,9.92-27.17,16.71a.91.91,0,0,0,.91,1.49c9.64-4,18.43-11.06,27.14-16.77a.84.84,0,0,0-.88-1.43Z"/><path class="cls-1" d="M506,562.7c-26.24-24.06-66.35-43.62-102.37-44.38-1,0-1.07,1.44-.17,1.71,19.16,5.75,38,9.33,56.32,17.84,16,7.4,30,17.28,44.45,27.24,1.42,1,3-1.27,1.77-2.41Z"/><path class="cls-1" d="M509.61,560.35c-19.66-21.74-52.74-41.19-82.14-44.51-1.22-.14-2.21,1.61-.86,2.21,14.23,6.39,29.11,10.7,42.89,18.19s25.73,17.29,38.36,26.5c1.44,1,2.81-1.22,1.75-2.39Z"/><path class="cls-1" d="M513.34,564.53C500,569,486.57,576.42,478.51,588.28c-.33.48.37,1.15.82.79,11-8.75,21.38-17.38,34.48-23,.93-.4.54-1.87-.47-1.54Z"/><path class="cls-1" d="M509.63,565.4a83,83,0,0,0-17.56,5.69c-4.76,2.14-11,4.61-14,9.13-.5.77.38,1.5,1.11,1.36,4.9-.92,9.51-4.77,14-7a142.29,142.29,0,0,1,17.1-7.05,1.12,1.12,0,0,0-.65-2.14Z"/><path class="cls-1" d="M511.62,557.52c-5.64,2.42-11.27,4.84-16.85,7.4-5.34,2.45-11.68,4.53-16.07,8.48a1.31,1.31,0,0,0,1,2.19c5.31-.77,10.42-3.9,15.25-6.17,6.07-2.86,12.05-5.88,18-8.93,1.63-.84.38-3.7-1.34-3Z"/><path class="cls-1" d="M500.61,555.66c-8.33,6.52-18.1,8.82-27.65,12.7a.56.56,0,0,0,.18,1.09c10.67.55,20.52-6,28.37-12.67.62-.53-.25-1.62-.9-1.12Z"/><path class="cls-1" d="M496.49,548.87c-4.94,2.56-9.7,5.5-14.48,8.35-4.12,2.46-9.68,4.67-12.75,8.39a1.2,1.2,0,0,0,1.21,2c4.73-1.07,9.18-5,13.24-7.6,4.7-3,9.47-5.9,14-9.16a1.15,1.15,0,0,0-1.2-2Z"/><path class="cls-1" d="M493.74,548.18q-5.76,2.73-11.55,5.39c-3.6,1.66-7,3-9.9,5.72-.57.52.1,1.23.7,1.13,4-.68,7.16-2.54,10.72-4.38q5.64-2.92,11.31-5.77c1.43-.71.12-2.77-1.28-2.09Z"/><path class="cls-1" d="M488.13,550.14c-4.3,1.86-8.74,3.56-12.88,5.78a.39.39,0,0,0,.32.71c4.4-1.5,8.63-3.57,12.89-5.42.64-.29.33-1.36-.33-1.07Z"/><path class="cls-1" d="M537,623.21c-14-3.74-33.75-4.47-47.22,1.64-1.36.61-.42,2.42.75,2.49,7.62.41,15.47-1.37,23.11-1.79s15.45-.11,23.17-.5a.94.94,0,0,0,.19-1.84Z"/><path class="cls-1" d="M541.54,624.82c-14.23,3.64-30.53,6.22-43.78,12.62-1.51.73-.68,3.29.95,3.12,14.63-1.52,29.86-7.93,43.87-12.32a1.79,1.79,0,0,0-1-3.42Z"/><path class="cls-1" d="M539.61,633c-6.72,1.66-13.4,3.44-20,5.41-5.86,1.74-12.11,3.09-17.35,6.34a1.19,1.19,0,0,0,.67,2.18c6.15-.28,12.07-2.69,17.89-4.57,6.59-2.13,13.1-4.44,19.58-6.88a1.3,1.3,0,0,0-.75-2.48Z"/><path class="cls-1" d="M538.19,641.54a74.05,74.05,0,0,0-17,3.77c-4.46,1.59-9.8,3.35-12.34,7.58a.94.94,0,0,0,.85,1.38c4.86-.2,9.1-3.37,13.55-5.11a83.78,83.78,0,0,1,15.44-4.35c1.85-.34,1.34-3.48-.54-3.27Z"/><path class="cls-1" d="M527.16,653.29l1.64.57c2,.66,2.66-2.9.3-3l-1.67-.06a1.18,1.18,0,0,0-.52,2.19l1.52.7c2.11,1,3.13-2.5,1.07-2.79l-1.72-.24a1.34,1.34,0,0,0-.62,2.61Z"/><path class="cls-1" d="M525.91,652a10.78,10.78,0,0,1-9.82,9.62.85.85,0,0,0,.06,1.7A11.86,11.86,0,0,0,529,651.93c.08-2-2.93-1.83-3.08.11Z"/><path class="cls-1" d="M125.2,685.63c-22.06,15.89-44.56,31.93-64.46,50.5-.39.36.13,1,.57.71,22.91-14.69,44-32.54,64.88-50,.68-.57-.26-1.74-1-1.22Z"/><path class="cls-1" d="M130.81,695.34c-17.68,14.54-38.08,28.14-53.21,45.39a.83.83,0,0,0,1,1.27c19.64-12.12,36.43-30,53.79-45.12,1.1-1-.52-2.43-1.61-1.54Z"/><path class="cls-1" d="M598.47,533.29c-8,5-16.11,9.7-24.19,14.53-7,4.2-15.51,8.19-21.24,14.1a1,1,0,0,0,1,1.57c7.77-2.79,14.86-8.82,21.61-13.51,7.74-5.37,15.43-10.79,23.25-16.05a.37.37,0,0,0-.39-.64Z"/><path class="cls-1" d="M595.34,530.79a93.45,93.45,0,0,0-26.76,10.7c-6.86,4-16.83,9.75-20.51,17.11a1.52,1.52,0,0,0,2.12,2c7.49-3.67,13.44-10.93,20.72-15.34a124,124,0,0,1,25.39-11.35,1.64,1.64,0,0,0-1-3.13Z"/><path class="cls-1" d="M592.56,530.15A71.46,71.46,0,0,0,570.84,542c-5.08,4.06-12.32,9.67-13.6,16.37a1.18,1.18,0,0,0,1.74,1.26c5.38-3.15,9-9.52,13.73-13.63a76.41,76.41,0,0,1,20.87-12.53c2-.85,1.16-4.11-1-3.36Z"/><path class="cls-1" d="M596.4,537.48l-14.26,8.71c-4.32,2.64-9,5.1-12.77,8.52a1.54,1.54,0,0,0,1.55,2.51c4.75-1.81,9.05-4.9,13.35-7.57l14.2-8.82a2,2,0,0,0-2.07-3.35Z"/><path class="cls-1" d="M581.19,497.44c-15.61,5-34.73,11.44-46.44,23.4-.57.59,0,1.79.88,1.44,7.13-3.07,13.55-7.8,20.32-11.58a228.69,228.69,0,0,1,25.51-12.35c.56-.23.32-1.1-.27-.91Z"/><path class="cls-1" d="M575.57,507q-8.28,3.72-16.49,7.59c-5.25,2.48-11.63,4.66-15.94,8.59-.73.65.11,1.61.89,1.46,5.41-1.08,10.68-4.7,15.51-7.29q8.36-4.46,16.59-9.1c.67-.38.16-1.57-.56-1.25Z"/><path class="cls-1" d="M573.18,518.66c-5.32,2.7-10.78,5.12-16.15,7.74-4.66,2.27-10.22,4.31-13.87,8.05-.61.62.08,1.46.82,1.32,5.12-.94,10-4.48,14.47-7.07,5.14-3,10.17-6.14,15.35-9,.67-.38.05-1.35-.62-1Z"/><path class="cls-1" d="M572.32,532.34c-5.6,3.41-11.57,6.54-16.71,10.62a.88.88,0,0,0,.93,1.5c6-2.76,11.43-6.68,17-10.14a1.16,1.16,0,0,0-1.22-2Z"/><path class="cls-1" d="M608.88,331.64c-8.32,18.55-18.5,38.09-23.41,57.87a1,1,0,0,0,1.76.68c10.37-17.53,16.81-38.6,23.89-57.68.48-1.28-1.68-2.11-2.24-.87Z"/><path class="cls-1" d="M615.9,336.14c-9.33,19.32-20.36,39.39-26.44,60-.27.94,1.08,1.38,1.55.6,11.09-18.33,18.43-39.92,26.39-59.77.4-1-1-1.84-1.5-.83Z"/><path class="cls-1" d="M616.68,359.38c-4.77,11.33-10,22.75-13.41,34.59a.92.92,0,0,0,1.69.66c5.69-10.92,9.68-22.86,14-34.37.49-1.29-1.73-2.16-2.27-.88Z"/><path class="cls-1" d="M621.17,374.78c-7.1,10.3-13,21.92-13.65,34.61,0,.76,1.05.77,1.26.12,3.77-11.85,7.06-23.35,13.79-34,.57-.88-.83-1.61-1.4-.77Z"/><path class="cls-1" d="M623.79,383.84c-3.77,7.31-9.19,15.57-10.86,23.66-.15.71.82,1.37,1.34.72,5.17-6.46,8.07-15.83,11.3-23.4.51-1.18-1.17-2.16-1.78-1Z"/><path class="cls-1" d="M624.27,392.39c-4.06,6.86-8.14,13.66-11.7,20.79a.74.74,0,0,0,1.29.71c4.42-6.64,8.29-13.57,12.22-20.5a1,1,0,0,0-1.81-1Z"/><path class="cls-1" d="M587.16,407.25c-4.56,16.84-10.53,34.71-12.25,52.09a1.23,1.23,0,0,0,2.3.55c6.28-16.3,9-34.95,12.5-52a1.31,1.31,0,0,0-2.55-.61Z"/><path class="cls-1" d="M596.21,417.67c-5.21,9.06-11.43,22-10.16,32.72.1.83,1.38,1.37,1.78.42,1.92-4.54,2.35-9.55,3.69-14.29a119.63,119.63,0,0,1,6.79-17.7,1.2,1.2,0,0,0-2.1-1.15Z"/><path class="cls-1" d="M593,439.18c1.78,1.43-1.2,4.62-2.1,5.91a4.86,4.86,0,0,0-.46,5.15c1.14,2,5.16,4,5.37.34.06-1-1.25-1.06-1.69-.4a6.83,6.83,0,0,1-.91-2.68c.26-1.37,1.73-2.82,2.29-4.12,1-2.22,1.2-4.69-1.15-6-1.11-.63-2.38,1-1.35,1.83Z"/><path class="cls-1" d="M597.45,438.5c-.73,2.4-1.48,4.8-2.17,7.21-.62,2.16-1.53,4.38-1.28,6.64.1.89,1.34,1.63,2,.77,1.39-1.79,1.79-3.95,2.4-6.11.74-2.59,1.4-5.19,2.08-7.79.51-2-2.46-2.63-3-.72Z"/><path class="cls-1" d="M594.9,440.85a.11.11,0,0,0,.05-.21.11.11,0,0,0-.05.21Z"/><path class="cls-1" d="M588.13,427.15c-3.1,7.76-7.7,16.31-8,24.73a.94.94,0,0,0,1.61.61c5.25-6.64,7.33-16,10-23.95.71-2.05-2.8-3.43-3.61-1.39Z"/><path class="cls-1" d="M583.36,434.67c-2.05,4.43-4.48,8.84-5.88,13.53-.57,1.92,2.14,2.72,3.13,1.2,2.57-4,4.29-8.52,6.26-12.8,1.07-2.33-2.42-4.27-3.51-1.93Z"/><path class="cls-1" d="M559.54,624.22c-.95.6-2.24,1-3.2,1.64s-1.84,1.28-2.74,1.93c-1.47,1.07-3.39,2.08-3.47,3.68,0,.42.7,1,1.51.91,2.43-.38,3.51-1.59,4.86-2.73.82-.69,1.64-1.38,2.41-2.09s1.32-1.78,2.15-2.58c.45-.45-.93-1.14-1.52-.76Z"/><path class="cls-1" d="M568.48,620.46a51.45,51.45,0,0,0-11.09,7.2c-3.1,2.64-6.68,5.4-7.18,9.63-.07.64.45,1.39,1.18,1.11,3.54-1.36,5.42-4.4,8.09-7A78.66,78.66,0,0,1,570,623a1.46,1.46,0,0,0-1.53-2.49Z"/><path class="cls-1" d="M569.78,626.91c-2.66,2.36-5.31,4.69-7.84,7.21-2.24,2.23-4.33,4-5.08,7.12a1.08,1.08,0,0,0,1.35,1.27c3-1,4.65-3.17,6.7-5.56,2.33-2.71,4.47-5.53,6.63-8.36a1.22,1.22,0,0,0-1.76-1.68Z"/><path class="cls-1" d="M577.85,631.4a27.9,27.9,0,0,0-13.53,6.87c-3.21,3-7.53,7.85-6.84,12.51.13.88,1.16,1.79,2,1.1,3.3-2.58,4.75-6.93,7.56-10a38.42,38.42,0,0,1,11.54-8.71c1-.51.21-1.93-.78-1.72Z"/><path class="cls-1" d="M578.48,639.92c-4.37,1.85-8.21,3.57-11.89,6.68-3.07,2.59-7.1,6.21-7.26,10.47-.05,1.17,1.31,1.62,2.2,1.17,3.24-1.63,5.26-5.58,7.73-8.19a49.28,49.28,0,0,1,10-8.41c.9-.53.24-2.15-.78-1.72Z"/><path class="cls-1" d="M585.71,644.72c-4.71,3.63-9.64,7-14.34,10.63-3.7,2.88-8.66,5.78-10.87,10a1.34,1.34,0,0,0,1.55,1.91c4.54-1.37,8.33-5.67,11.86-8.74,4.5-3.91,8.73-8.12,13.19-12,.94-.83-.39-2.5-1.39-1.72Z"/><path class="cls-1" d="M593,652.27c-11,4.65-22.75,11.94-29.28,22.31-1.13,1.79,1.42,3.36,2.83,2.08,8.92-8.06,16.75-16.57,27-23.15.63-.4.18-1.56-.57-1.24Z"/><path class="cls-1" d="M602.82,657.41c-12.19,7.88-25.06,15.86-35.5,26-1,1,.35,2.52,1.52,1.87,12.71-7,24.11-17,35.17-26.41.83-.71-.29-2-1.19-1.47Z"/><path class="cls-1" d="M385.8,495.62c-30.49-.73-63.05,3.15-91.07,15.91-1.23.56-.28,2.45.95,2.1,30.12-8.43,58.63-15.54,90.17-16.4a.81.81,0,0,0-.05-1.61Z"/><path class="cls-1" d="M387.27,491.36c-26.11-8-61.33-3.62-82,15.46-.64.58.08,1.85.91,1.48,11.51-5.09,22.33-11.15,34.68-14.12,15.28-3.67,30.6-3.32,46.08-1.57a.64.64,0,0,0,.3-1.25Z"/><path class="cls-1" d="M336.8,495.39c-32.14,2.26-73.23,16.19-93.26,43-.52.7.16,1.73,1,1.24,14.25-8.26,26.63-18.88,41.64-26.07,16.18-7.74,33.44-12.52,51-15.87,1.32-.25.94-2.4-.38-2.31Z"/><path class="cls-1" d="M342.2,498.07c-27.44,7.38-59.79,20-80.43,40.16-.67.66.22,1.54,1,1.19,12.78-6,24.45-14.42,37.1-20.81a436,436,0,0,1,43-18.44,1.1,1.1,0,0,0-.64-2.1Z"/><path class="cls-1" d="M337.38,505.08C318.24,508.8,292.8,517.68,279,532a1,1,0,0,0,1,1.62c8.94-3.44,17-9.27,25.62-13.52,10.5-5.2,21.38-9.3,32.25-13.61a.75.75,0,0,0-.44-1.44Z"/><path class="cls-1" d="M335.79,509.87c-7.48,3-14.77,6.62-22.05,10.11-7.09,3.39-15,6.4-21,11.63-.76.67.13,1.67.93,1.51,7.38-1.45,14.27-5.66,20.94-9,7.48-3.77,15.05-7.49,22.28-11.74,1.31-.77.35-3.08-1.13-2.49Z"/><path class="cls-1" d="M334.86,516.18q-7.83,3.54-15.42,7.53c-4.73,2.48-11.12,4.68-14.65,8.76-.49.56-.16,1.72.72,1.6,5-.67,9.6-4.15,13.95-6.56,5.49-3,10.91-6.16,16.21-9.52.92-.58.26-2.29-.81-1.81Z"/><path class="cls-1" d="M342.6,517.91c-4.44,2.57-8.89,5.12-13.31,7.74-3.43,2-8.44,3.88-10.5,7.41a1,1,0,0,0,.94,1.53c4.09-.26,8-3.89,11.34-6.05,4.32-2.77,8.6-5.6,12.89-8.42a1.3,1.3,0,0,0-1.36-2.21Z"/><path class="cls-1" d="M341.34,526.82c-5.68.19-11.6,3-14.15,8.29a.47.47,0,0,0,.76.55c3.64-3.95,7.93-6.91,13.44-7.26a.79.79,0,0,0-.05-1.58Z"/><path class="cls-1" d="M438.62,520.08c-28.34-15.58-70.81-31.5-101.85-15.34-.79.41-.4,1.87.53,1.73,38.27-6,64.79,4.41,100.44,15.89,1.35.43,2.07-1.63.88-2.28Z"/><path class="cls-1" d="M467.59,720.81a327.61,327.61,0,0,1-32.66,20.64c-11.21,6.23-23.75,10.4-34.53,17.23a.87.87,0,0,0,.71,1.57c24.45-4.71,48.42-23.1,67.24-38.5.53-.44-.2-1.34-.76-.94Z"/><path class="cls-1" d="M474.25,731.55c-10.77,7.07-21.89,13.64-33.25,19.71s-23.69,10.58-34.52,17.32a1,1,0,0,0,.84,1.86c24.15-6.51,47.49-23.51,67.55-37.89.61-.44,0-1.42-.62-1Z"/><path class="cls-1" d="M478,734.54c-18.3,14.85-38.69,24.12-59.88,33.93-1,.45-.2,1.8.72,1.6,22.79-5,43.44-18.85,60.73-34,1.06-.94-.52-2.36-1.57-1.5Z"/><path class="cls-1" d="M520.84,667.78a.1.1,0,1,0,0-.2c-.13,0-.18.17,0,.2Z"/><path class="cls-1" d="M520.71,666.71c-23.84,37-52,60.61-86.15,87.35a1.21,1.21,0,0,0,1.27,2.07c36.9-16.79,68.3-53,87.21-88.14a1.33,1.33,0,0,0-2.33-1.28Z"/><path class="cls-1" d="M70.2,747.76c13.46,14.69,33.66,27.44,54.07,28.07,1,0,.88-1.24.15-1.52-19.77-7.59-36.68-13.92-53.3-27.52a.67.67,0,0,0-.92,1Z"/><path class="cls-1" d="M63.65,762.08c15.09,7.83,31,16.22,47.24,21.35,1.23.39,1.85-1.45.79-2.07-14.7-8.55-31.63-14.63-47.55-20.52-.72-.27-1.15.9-.48,1.24Z"/><path class="cls-1" d="M140.41,780c37.58,6.14,75.64,8.58,113.65,5.35a.51.51,0,0,0,0-1c-38-.11-75.64-1.12-113.45-5-.43,0-.61.6-.16.67Z"/><path class="cls-1" d="M281.09,769.05c-36.42,4.85-72,7.11-108.64,8.66a1.19,1.19,0,0,0,.09,2.37c35.81,2.09,73.77-2.17,108.62-10.64.21-.05.16-.42-.07-.39Z"/><path class="cls-1" d="M283.75,758.35c-27.51,3.54-55.53,3.44-82.9,7.19a.79.79,0,0,0,.06,1.58c27.16,1.77,56.1-3.3,82.88-7.43.84-.13.82-1.45,0-1.34Z"/><path class="cls-1" d="M316,742.68c-22.22,6.12-44.86,9.33-67.41,13.84-1.18.23-.76,2,.33,2,23.22.37,46.09-6.13,67.38-14.86a.51.51,0,0,0-.3-1Z"/><path class="cls-1" d="M321.36,732.59c-16.57,3.92-33.68,7.25-49.6,13.41-.79.3-.7,1.73.26,1.57,16.93-2.83,33.37-8.66,49.71-13.75a.64.64,0,0,0-.37-1.23Z"/><path class="cls-1" d="M381.87,775.69c-22.27,2.59-44.32,6.49-66.69,8.28s-44.9.68-67.27,2.27c-1.38.1-1.76,2.36-.25,2.56,42.78,5.64,93,.22,134.52-11.28,1-.27.76-1.95-.31-1.83Z"/><path class="cls-1" d="M384.53,777.53c-35.48,6.18-72.94,8.29-107.86,16.53-2.27.54-1.36,3.56.62,3.72,34.89,2.83,74.95-7.26,108-17.8,1.61-.52.83-2.72-.75-2.45Z"/><path class="cls-1" d="M423.93,759c-30.09,12.49-61.1,19.31-92.83,26-1.29.27-.87,2.22.37,2.21,32.79-.38,64.48-11.48,93-27,.68-.37.17-1.55-.56-1.25Z"/><path class="cls-1" d="M453.73,500.09c8.84,10.07,16.69,21.48,27.47,29.58.52.4,1.37-.13,1-.78-7.29-11.42-18.11-20.12-27.53-29.75-.59-.61-1.45.33-.9.95Z"/><path class="cls-1" d="M455.55,490a153.73,153.73,0,0,1,18.5,23.21c4.94,7.69,8.4,16.37,13.85,23.67.59.79,2.25.6,2.07-.62-2.84-18.56-18.71-36.41-31.86-48.94-1.73-1.66-4.2,1-2.56,2.68Z"/><path class="cls-1" d="M472.7,504.42c3.75,6.68,7.44,13.4,11.3,20,3.42,5.89,6.7,12.63,11.6,17.44a1.5,1.5,0,0,0,2.45-1.51c-2-6.57-6.51-12.56-10.18-18.32-4.12-6.46-8.39-12.82-12.6-19.23a1.51,1.51,0,0,0-2.57,1.59Z"/><path class="cls-1" d="M486.1,519.42a224.71,224.71,0,0,1,12.69,19c3.59,5.95,6.3,12.63,10.7,18,.75.92,1.87-.19,1.73-1.07-1.22-7.21-5.65-14-9.51-20A130.22,130.22,0,0,0,488,517.88c-.93-1-2.74.42-1.9,1.54Z"/><path class="cls-1" d="M501.56,528.17a161.2,161.2,0,0,0,7.34,15.57c2.68,5,5.11,10.39,9.1,14.43.71.72,1.73-.09,1.54-.94-1.13-5.26-4.17-10.06-6.7-14.75a166,166,0,0,0-9.27-15.22c-.67-1-2.52-.32-2,.91Z"/><path class="cls-1" d="M510.75,527.38A145.28,145.28,0,0,1,519.51,542c2.49,5,4.47,10.31,7,15.35.31.63,1.31.27,1.27-.38-.67-11.36-7.52-22.93-15.8-30.5-.64-.58-1.68.21-1.19,1Z"/><path class="cls-1" d="M708.86,553.89a77.8,77.8,0,0,0-12,9.92c-3.15,3.18-7.07,6.86-8.52,11.18a.84.84,0,0,0,1.25.91c3.65-2.55,6.3-6.85,9.33-10.12,3.46-3.73,7.16-7.21,10.9-10.65.67-.62-.25-1.75-1-1.24Z"/><path class="cls-1" d="M709.05,562.32q-4.23,4.27-8.48,8.54c-2.42,2.44-5.74,4.89-7.06,8.1a.81.81,0,0,0,1.12,1.08c3.11-1.56,5.29-5.06,7.54-7.65q3.95-4.56,7.88-9.11a.69.69,0,0,0-1-1Z"/><path class="cls-1" d="M713.49,568.46a28,28,0,0,0-9.71,6.07c-2.12,2-6,5.8-5.52,9a.88.88,0,0,0,1.32.71c1.28-.68,1.56-1.5,2.35-2.73a28.7,28.7,0,0,1,3.6-4.55,31,31,0,0,1,9-6.21c1.28-.6.31-2.75-1-2.25Z"/><path class="cls-1" d="M717.46,575.9c-2.23,2.14-4.66,4.05-6.89,6.2-1.76,1.7-4,3.36-4.86,5.68a.77.77,0,0,0,1,.91c2.29-.89,3.95-3.17,5.61-4.94,2.11-2.25,4-4.69,6.11-7a.65.65,0,0,0-.95-.9Z"/><path class="cls-1" d="M721,585c-2.27,1.34-4.55,2.66-6.77,4.11a.4.4,0,0,0,.42.67c2.3-1.3,4.52-2.72,6.76-4.11A.39.39,0,0,0,721,585Z"/><path class="cls-1" d="M442.75,532.71c-10.89,3.95-24.75,12.5-30.89,22.66a.6.6,0,0,0,.83.79c5.29-3.27,9.75-7.93,14.85-11.54s10.69-6.71,16-10c1-.61.29-2.28-.84-1.87Z"/><path class="cls-1" d="M462.07,538c-13.64,4.81-29.86,11.9-40,22.52-.47.49.16,1.17.72.88,6.74-3.45,12.75-8.39,19.34-12.17s13.37-7.24,20.23-10.52c.4-.19.1-.85-.32-.71Z"/><path class="cls-1" d="M474,542.29c-6.56,3.84-12.81,8.21-19.31,12.15s-13.67,7-19.8,11.38c-.77.54-.27,1.89.71,1.57,7.18-2.35,13.95-7,20.28-11a120.46,120.46,0,0,0,18.35-13.8c.15-.15-.06-.38-.23-.28Z"/><path class="cls-1" d="M478.4,553.49c-5.51,3.74-10.92,7.61-16.31,11.52-4.15,3-9.8,5.9-12.39,10.45a.6.6,0,0,0,.69.85c5.53-1.42,10.36-6.86,14.73-10.37,4.72-3.8,9.38-7.64,14-11.59.49-.41-.17-1.21-.69-.86Z"/><path class="cls-1" d="M480.28,567.89c-4,2.65-8,5.31-11.89,8.09-3.06,2.18-7.29,4.33-9.12,7.71a1,1,0,0,0,1.11,1.36c4-.83,7.74-4.74,10.92-7.23,3.48-2.72,6.89-5.51,10.29-8.31.93-.76-.33-2.27-1.31-1.62Z"/><path class="cls-1" d="M512.68,675.17c-17.18-1.08-37.53,3.11-53.45,9.41-.55.22-.49,1.17.18,1.09,17.64-2.09,36.32-4.63,53.5-9.09.84-.22.54-1.36-.23-1.41Z"/><path class="cls-1" d="M507.92,683c-8.75,1.44-17.4,3.31-26,5.26-8.45,1.91-17.78,2.88-25.5,6.89-.66.34-.25,1.26.38,1.28,8.16.19,16.33-2.78,24.23-4.66,9.12-2.18,18.23-4.38,27.21-7.1.89-.27.7-1.83-.28-1.67Z"/><path class="cls-1" d="M496.84,696.4c-7.7,2.12-15.17,4.92-23,6.72s-15.87,2.13-23.42,4.46c-.91.28-1,1.81.06,2,14.79,2.14,34.44-4,47.13-11.39a1,1,0,0,0-.79-1.75Z"/><path class="cls-1" d="M484.33,709.63c-10,2.5-20.58,4.31-30.27,7.88-1.12.41-1,2.37.36,2.18,10.34-1.52,20.55-5,30.66-7.58,1.62-.42.86-2.88-.75-2.48Z"/></svg>